<svg width="800.000000" height="500.000000" viewBox="0 0 800 500" fill="none" xmlns="http://www.w3.org/2000/svg" xmlns:xlink="http://www.w3.org/1999/xlink">
	<desc>
			Created with Pixso.
	</desc>
	<defs>
		<clipPath id="clip144_20940">
			<rect id="Mirrors (1)" width="48.000000" height="48.000000" transform="translate(372.000000 69.000000)" fill="white" fill-opacity="0"/>
		</clipPath>
		<clipPath id="clip137_20946">
			<rect id="持续交付应用场景" width="800.000000" height="500.000000" fill="white" fill-opacity="0"/>
		</clipPath>
		<linearGradient x1="598.000000" y1="344.000000" x2="646.000000" y2="392.000000" id="paint_linear_138_20875_0" gradientUnits="userSpaceOnUse">
			<stop offset="0.004999" stop-color="#1BDD52"/>
			<stop offset="0.501534" stop-color="#00B940"/>
			<stop offset="1.000000" stop-color="#10B63B"/>
		</linearGradient>
		<linearGradient x1="612.110718" y1="356.305908" x2="631.535156" y2="372.417145" id="paint_linear_138_20880_0" gradientUnits="userSpaceOnUse">
			<stop stop-color="#1BDD52"/>
			<stop offset="0.500639" stop-color="#00B940"/>
			<stop offset="1.000000" stop-color="#10B63B"/>
		</linearGradient>
		<linearGradient x1="372.000000" y1="69.000000" x2="420.000000" y2="117.000000" id="paint_linear_144_20942_0" gradientUnits="userSpaceOnUse">
			<stop offset="0.004999" stop-color="#449AFF"/>
			<stop offset="0.501534" stop-color="#1476FF"/>
			<stop offset="1.000000" stop-color="#3589FF"/>
		</linearGradient>
		<linearGradient x1="396.203796" y1="89.227051" x2="404.251587" y2="98.759438" id="paint_linear_144_20945_0" gradientUnits="userSpaceOnUse">
			<stop stop-color="#1577FF"/>
			<stop offset="0.516882" stop-color="#1D7BFF"/>
			<stop offset="1.000000" stop-color="#2C84FF"/>
		</linearGradient>
		<linearGradient x1="373.000000" y1="344.000000" x2="421.000000" y2="392.000000" id="paint_linear_138_20887_0" gradientUnits="userSpaceOnUse">
			<stop offset="0.004999" stop-color="#449AFF"/>
			<stop offset="0.501534" stop-color="#1476FF"/>
			<stop offset="1.000000" stop-color="#3589FF"/>
		</linearGradient>
		<linearGradient x1="387.369690" y1="358.258789" x2="406.321777" y2="371.915466" id="paint_linear_138_20889_0" gradientUnits="userSpaceOnUse">
			<stop stop-color="#449AFF"/>
			<stop offset="0.509981" stop-color="#1476FF"/>
			<stop offset="1.000000" stop-color="#3589FF"/>
		</linearGradient>
	</defs>
	<g clip-path="url(#clip137_20946)">
		<rect id="线下IDC部署" width="800.000000" height="500.000000" fill="#FFFFFF" fill-opacity="1.000000"/>
		<path id="直线备份 12" d="M358.03 93L358.03 90.13L363 93L358.03 95.86L358.03 93L359.03 93L359.03 95L358.53 95L358.28 94.56L361.75 92.56L362 93L361.75 93.43L358.28 91.43L358.53 91L359.03 91L359.03 93L358.03 93ZM358.53 93L358.53 91L362 93L358.53 95L358.53 93" fill="#D8D8D8" fill-opacity="0" fill-rule="nonzero"/>
		<path id="直线备份 12" d="M358.03 93.5L358.03 95.86L363 93L358.03 90.13L358.03 92.5L206 92.5L206 93.5L358.03 93.5Z" fill="#999999" fill-opacity="1.000000" fill-rule="evenodd"/>
		<path id="直线备份 12" d="M621 329.53L623.86 329.53L621 334.5L618.13 329.53L621 329.53L621 330.53L619 330.53L619 330.03L619.43 329.78L621.43 333.25L621 333.5L620.56 333.25L622.56 329.78L623 330.03L623 330.53L621 330.53L621 329.53ZM621 330.03L623 330.03L621 333.5L619 330.03L621 330.03" fill="#D8D8D8" fill-opacity="0" fill-rule="nonzero"/>
		<path id="直线备份 12" d="M620.5 329.53L618.13 329.53L621 334.5L623.86 329.53L621.5 329.53L621.5 108Q621.5 104.79 620.36 102.04Q619.23 99.3 616.96 97.03C613.93 94.01 610.27 92.5 606 92.5L430 92.5L430 93.5L606 93.5Q609 93.5 611.56 94.56Q614.12 95.62 616.25 97.74C619.08 100.57 620.5 103.99 620.5 108L620.5 329.53Z" fill="#999999" fill-opacity="1.000000" fill-rule="evenodd"/>
		<rect id="矩形" x="378.500000" y="66.000000" rx="0.500000" width="48.000000" height="48.000000" fill="#D8D8D8" fill-opacity="0"/>
		<rect id="矩形" x="379.000000" y="66.500000" rx="0.500000" width="47.000000" height="47.000000" stroke="#979797" stroke-opacity="0" stroke-width="1.000000"/>
		<path id="直线备份 12" d="M397 330.03L399.86 330.03L397 335L394.13 330.03L397 330.03L397 331.03L395 331.03L395 330.53L395.43 330.28L397.43 333.75L397 334L396.56 333.75L398.56 330.28L399 330.53L399 331.03L397 331.03L397 330.03ZM397 330.53L399 330.53L397 334L395 330.53L397 330.53" fill="#D8D8D8" fill-opacity="0" fill-rule="nonzero"/>
		<path id="直线备份 12" d="M396.5 330.03L394.13 330.03L397 335L399.86 330.03L397.5 330.03L397.5 165L396.5 165L396.5 330.03Z" fill="#999999" fill-opacity="1.000000" fill-rule="evenodd"/>
		<path id="开源依赖" d="M372.88 242.96Q372.17 242.21 371.68 241.26Q372.76 240.41 373.87 239.44L373.26 238.73Q372.15 239.79 371.3 240.45Q370.83 239.27 370.52 237.66L370.58 237.54L374.19 237.54L374.19 236.61L371.07 236.61Q370.41 235.14 370.18 234.7L369.32 235.11Q369.75 235.95 370.03 236.61L366.77 236.61L366.77 237.54L369.56 237.54Q368.96 238.85 368.17 239.91Q367.39 240.96 366.16 242.02L366.79 242.84Q367.54 242.14 368.03 241.6L368.03 244.31Q368.03 244.34 368.03 244.37Q368 244.71 367.62 245.02L368.06 245.8Q368.52 245.51 369.05 245.24Q369.93 244.8 371.06 244.31L370.87 243.35L368.98 244.31L368.98 240.44Q369.44 239.8 369.92 238.95Q370.29 240.48 370.78 241.58Q371.26 242.67 372 243.51Q372.73 244.36 373.82 245.14L374.53 244.31Q373.58 243.7 372.88 242.96ZM381.63 236.65Q381.08 237.57 380.41 238.3L380.8 239.13Q381.04 238.86 381.15 238.73L381.15 243.27L381.97 243.27L381.97 239.03L384.97 239.03L384.97 243.26L385.78 243.26L385.78 238.19L384.55 238.19L385.57 236.55L385.57 235.77L383.05 235.77Q383.17 235.49 383.38 234.91L382.5 234.79Q382.17 235.72 381.63 236.65ZM380.38 243.58Q379.39 242.7 378.53 242.04L378.53 241.53L380.17 241.53L380.17 238.29L378.53 238.29L378.53 237.02L380.55 237.02L380.55 236.19L378.53 236.19L378.53 234.87L377.72 234.87L377.72 236.19L375.63 236.19L375.63 237.02L377.72 237.02L377.72 238.29L376.06 238.29L376.06 241.53L377.6 241.53Q377.24 242.27 376.66 243Q376.09 243.72 375.4 244.31L375.82 245.16Q377.03 244.01 377.72 242.7L377.72 245.87L378.53 245.87L378.53 242.96Q379.17 243.58 379.84 244.32L380.38 243.58ZM365.78 237.75Q366.29 236.6 366.75 235.12L365.8 234.9Q365.32 236.5 364.67 237.87Q364.02 239.24 363.24 240.26L363.76 241.2Q364.34 240.45 364.83 239.6L364.83 245.77L365.78 245.77L365.78 237.75ZM353.05 236.77Q353.66 237.29 353.97 237.59L354.53 236.81L352.51 235.18L351.97 235.9Q352.44 236.26 353.05 236.77ZM359.68 241.92L361.66 241.92L361.66 237.54L359.42 237.54Q359.54 237.12 359.72 236.45L362.46 236.45L362.46 235.55L355.05 235.55L355.05 239.53Q355.05 240.93 354.94 241.88Q354.82 242.84 354.54 243.67Q354.26 244.49 353.73 245.48L354.61 245.87Q355.14 244.88 355.42 243.99Q355.71 243.11 355.83 242.06Q355.95 241.01 355.95 239.5L355.95 236.45L358.77 236.45Q358.58 237.24 358.48 237.54L356.76 237.54L356.76 241.92L358.79 241.92L358.79 244.03Q358.79 244.52 358.69 244.71Q358.66 244.76 358.63 244.79Q358.51 244.91 358.28 244.91Q358.02 244.91 357.34 244.82L357.52 245.69Q357.88 245.74 358.25 245.76Q358.41 245.76 358.58 245.76Q359.18 245.76 359.43 245.47Q359.43 245.46 359.44 245.46Q359.68 245.15 359.68 244.39L359.68 241.92ZM350.3 240.95L350.3 240L347.74 240L347.74 236.64L349.77 236.64L349.77 235.71L340.16 235.71L340.16 236.64L342.38 236.64L342.38 240L339.65 240L339.65 240.95L342.33 240.95Q342.26 241.89 342.02 242.56Q341.78 243.22 341.28 243.81Q340.78 244.41 339.87 245.15L340.65 245.88Q341.62 245.03 342.16 244.34Q342.7 243.65 342.97 242.87L342.97 242.87Q343.23 242.08 343.32 240.95L346.76 240.95L346.76 245.77L347.74 245.77L347.74 240.95L350.3 240.95ZM381.58 238.19Q382.22 237.34 382.64 236.6L384.56 236.6Q384.41 236.84 383.54 238.19L381.58 238.19ZM346.76 240L343.36 240L343.36 236.64L346.76 236.64L346.76 240ZM352.55 239.42Q353.19 239.94 353.59 240.32L354.17 239.55L353.56 239.05Q352.35 238.08 352.02 237.83L351.49 238.56Q351.92 238.89 352.55 239.42ZM360.77 238.35L360.77 239.36L357.64 239.36L357.64 238.35L360.77 238.35ZM376.83 239.04L377.72 239.04L377.72 240.78L376.83 240.78L376.83 239.04ZM379.44 240.78L378.53 240.78L378.53 239.04L379.44 239.04L379.44 240.78ZM384.76 244.82Q385.47 245.44 385.96 245.91L386.52 245.16Q386.01 244.74 385.16 244.09Q384.32 243.44 383.74 243.04Q383.86 242.5 383.86 241.49L383.86 239.75L383.03 239.75L383.03 241.31Q383.03 242.45 382.85 243.06Q382.85 243.08 382.84 243.1Q382.65 243.68 382.08 244.13Q381.49 244.6 380.18 245.13L380.65 245.94Q381.88 245.36 382.54 244.85Q383.2 244.35 383.5 243.76Q384.05 244.2 384.76 244.82ZM357.64 240.14L360.77 240.14L360.77 241.14L357.64 241.14L357.64 240.14ZM352.76 245.75L353.92 241.3L353.02 241.08Q352.96 241.47 352.5 243.21Q352.04 244.96 351.88 245.5L352.76 245.75ZM362.5 245.09Q361.67 243.23 361.23 242.39L360.48 242.7Q360.74 243.21 361.12 244.07Q361.51 244.92 361.7 245.44L362.5 245.09ZM357.07 244.21Q357.48 243.45 357.74 242.79L356.97 242.48Q356.49 243.76 355.54 245.14L356.26 245.57Q356.67 244.97 357.07 244.21Z" fill="#191919" fill-opacity="1.000000" fill-rule="evenodd"/>
		<rect id="网络/ELB备份 9" width="48.000000" height="48.000000" transform="translate(325.000000 364.000000)" fill="#D7D7D7" fill-opacity="0"/>
		<path id="形状" d="" fill="#FFFFFF" fill-opacity="1.000000" fill-rule="nonzero"/>
		<rect id="网络/ELB备份 11" width="48.000000" height="48.000000" transform="translate(531.000000 364.000000)" fill="#D7D7D7" fill-opacity="0"/>
		<path id="形状" d="" fill="#FFFFFF" fill-opacity="1.000000" fill-rule="nonzero"/>
		<path id="开源中心仓" d="M192.74 128.05Q194.71 126.62 196 124.88Q196.81 126.04 198.16 127.18Q198.58 127.53 199.01 127.85Q199.99 128.58 201.08 129.16L201.59 128.14Q199.89 127.29 198.6 126.19Q197.3 125.09 196.48 123.82L195.49 123.82Q194.69 125.09 193.36 126.25Q192.03 127.41 190.38 128.27L190.89 129.25Q191.75 128.77 192.68 128.1L192.68 132.83Q192.68 133.55 192.85 133.92Q192.94 134.11 193.08 134.24Q193.21 134.36 193.39 134.44Q193.75 134.6 194.45 134.64Q195.46 134.73 196.56 134.73Q197.65 134.73 198.66 134.64Q199.37 134.6 199.73 134.47Q199.98 134.38 200.14 134.21Q200.2 134.13 200.26 134.04Q200.42 133.74 200.48 133.13Q200.58 132.33 200.59 131.93L199.6 131.64L199.6 131.64Q199.59 131.64 199.56 132.39L199.53 132.67Q199.5 133.1 199.4 133.3Q199.37 133.36 199.32 133.42Q199.23 133.52 199.08 133.58Q198.86 133.66 198.39 133.7Q197.28 133.78 196.52 133.78Q195.79 133.78 194.65 133.7Q194.21 133.66 193.99 133.56Q193.88 133.51 193.81 133.42Q193.74 133.34 193.7 133.23Q193.63 133 193.63 132.55L193.63 128.96L198.06 128.96Q198.06 129.52 198 130.22Q197.96 130.6 197.88 130.78Q197.85 130.84 197.82 130.88Q197.73 130.98 197.58 131.03Q197.38 131.1 196.94 131.1Q196.14 131.1 195.48 131.01L195.66 131.93Q196.33 132 196.99 132Q197.76 132 198.15 131.87Q198.42 131.78 198.59 131.6Q198.67 131.51 198.72 131.41Q198.9 131.07 198.95 130.39Q199.04 128.91 199.03 128.05L192.74 128.05ZM176.65 125.98L172.48 125.98L172.48 123.9L171.48 123.9L171.48 125.98L167.33 125.98L167.33 131.19L171.48 131.19L171.48 134.88L172.48 134.88L172.48 131.19L176.65 131.19L176.65 125.98ZM184.7 125.67Q183.88 124.56 183.32 123.91L182.54 124.52Q183.07 125.15 183.88 126.27Q184.68 127.38 185.11 128.09L185.98 127.46Q185.52 126.77 184.7 125.67ZM156.05 125.77Q156.66 126.29 156.97 126.59L157.53 125.81L155.51 124.18L154.97 124.9Q155.44 125.26 156.05 125.77ZM162.68 130.92L164.66 130.92L164.66 126.54L162.42 126.54Q162.54 126.12 162.72 125.45L165.46 125.45L165.46 124.55L158.05 124.55L158.05 128.53Q158.05 129.93 157.94 130.88Q157.82 131.84 157.54 132.67Q157.26 133.49 156.73 134.48L157.61 134.87Q158.14 133.88 158.42 132.99Q158.71 132.11 158.83 131.06Q158.95 130.01 158.95 128.5L158.95 125.45L161.77 125.45Q161.58 126.24 161.48 126.54L159.75 126.54L159.75 130.92L161.79 130.92L161.79 133.03Q161.79 133.52 161.69 133.71Q161.66 133.76 161.63 133.79Q161.51 133.91 161.28 133.91Q161.02 133.91 160.34 133.82L160.52 134.69Q160.88 134.74 161.25 134.76Q161.41 134.76 161.58 134.76Q162.18 134.76 162.42 134.47Q162.43 134.46 162.44 134.46Q162.68 134.15 162.68 133.39L162.68 130.92ZM153.3 129.95L153.3 129L150.74 129L150.74 125.64L152.77 125.64L152.77 124.71L143.16 124.71L143.16 125.64L145.38 125.64L145.38 129L142.65 129L142.65 129.95L145.33 129.95Q145.26 130.89 145.02 131.56Q144.78 132.22 144.28 132.81Q143.78 133.41 142.87 134.15L143.65 134.88Q144.62 134.03 145.16 133.34Q145.7 132.65 145.97 131.87L145.97 131.87Q146.23 131.08 146.32 129.95L149.76 129.95L149.76 134.77L150.74 134.77L150.74 129.95L153.3 129.95ZM149.76 129L146.36 129L146.36 125.64L149.76 125.64L149.76 129ZM182.58 133.12Q182.51 132.93 182.51 132.54L182.51 126.36L181.49 126.36L181.49 132.75Q181.49 133.44 181.64 133.81Q181.72 133.99 181.86 134.12Q181.98 134.24 182.15 134.31Q182.51 134.46 183.17 134.51Q183.67 134.55 184.17 134.55Q184.67 134.55 185.17 134.51Q185.88 134.46 186.25 134.32Q186.52 134.21 186.69 134.02Q186.76 133.95 186.81 133.86Q187 133.55 187.07 132.94Q187.13 132.46 187.17 131.26L186.13 131.02Q186.13 131.29 186.11 131.73Q186.1 132.16 186.07 132.55Q186.03 132.94 185.95 133.13Q185.93 133.18 185.89 133.23Q185.81 133.34 185.65 133.39Q185.44 133.47 184.98 133.52Q184.58 133.55 184.19 133.55Q183.82 133.55 183.44 133.52Q183.42 133.52 183.39 133.52Q183.02 133.48 182.84 133.4Q182.75 133.36 182.69 133.29Q182.62 133.22 182.58 133.12ZM155.55 128.42Q156.19 128.94 156.59 129.32L157.17 128.55L156.56 128.05Q155.35 127.08 155.02 126.83L154.49 127.56Q154.92 127.89 155.55 128.42ZM168.31 130.23L168.31 126.93L171.48 126.93L171.48 130.23L168.31 130.23ZM175.67 130.23L172.48 130.23L172.48 126.93L175.67 126.93L175.67 130.23ZM188.64 129.4Q188.03 128.04 187.58 127.2L186.67 127.6Q187.1 128.43 187.7 129.79Q188.29 131.16 188.66 132.15L189.64 131.73Q189.25 130.75 188.64 129.4ZM163.77 127.35L163.77 128.36L160.64 128.36L160.64 127.35L163.77 127.35ZM179.19 129.83Q178.81 131.08 178.43 132.1L179.4 132.42Q179.81 131.38 180.19 130.1Q180.58 128.81 180.84 127.65L179.82 127.43Q179.57 128.57 179.19 129.83ZM160.64 129.14L163.77 129.14L163.77 130.14L160.64 130.14L160.64 129.14ZM155.76 134.75L156.92 130.3L156.02 130.08Q155.96 130.47 155.5 132.21Q155.04 133.96 154.88 134.5L155.76 134.75ZM165.5 134.09Q164.67 132.23 164.23 131.39L163.48 131.7Q163.74 132.21 164.12 133.07Q164.51 133.92 164.7 134.44L165.5 134.09ZM160.07 133.21Q160.48 132.45 160.74 131.79L159.97 131.48Q159.49 132.76 158.54 134.14L159.26 134.57Q159.67 133.97 160.07 133.21Z" fill="#242828" fill-opacity="1.000000" fill-rule="evenodd"/>
		<rect id="网络/ELB备份 7" width="48.000000" height="48.000000" transform="translate(147.501953 68.752441)" fill="#BAB9B9" fill-opacity="0"/>
		<path id="path" d="M187.85 84.79C188.26 85.49 188.47 86.27 188.49 87.13L188.49 103.9C188.45 105.27 187.97 106.41 187.07 107.32C186.16 108.23 185.02 108.7 183.65 108.75L159.34 108.75C157.97 108.7 156.83 108.23 155.92 107.32C155.01 106.41 154.54 105.27 154.49 103.9L154.49 87.13C154.49 86.27 154.71 85.49 155.16 84.79C155.6 84.1 156.19 83.5 156.92 83.02L169.07 75.48C169.82 74.99 170.67 74.75 171.61 74.75C172.55 74.75 173.4 74.99 174.15 75.48L186.3 83.02C186.92 83.5 187.43 84.1 187.85 84.79ZM178.12 93.51C178.55 93.07 178.77 92.48 178.77 91.75C178.77 91.02 178.55 90.43 178.12 89.99C177.68 89.54 177.09 89.32 176.34 89.32L166.65 89.32C165.89 89.32 165.3 89.54 164.87 89.99C164.44 90.43 164.22 91.02 164.22 91.75C164.22 92.48 164.44 93.06 164.87 93.51C165.3 93.95 165.89 94.17 166.65 94.17L176.34 94.17C177.09 94.17 177.68 93.95 178.12 93.51ZM178.12 103.22C178.55 102.79 178.77 102.2 178.77 101.46C178.77 100.72 178.55 100.13 178.12 99.7C177.68 99.27 177.09 99.04 176.34 99.02L166.65 99.02C165.89 99.04 165.3 99.27 164.87 99.7C164.44 100.13 164.22 100.72 164.22 101.46C164.22 102.2 164.44 102.79 164.87 103.22C165.3 103.65 165.89 103.88 166.65 103.9L176.34 103.9C177.09 103.88 177.68 103.65 178.12 103.22Z" fill="#25C251" fill-opacity="1.000000" fill-rule="nonzero"/>
		<path id="部署 CodeArts Deploy" d="M615.67 403.19Q615.92 402.29 616.15 401.16L616.98 401.16L616.98 400.27L614.73 400.27Q614.58 399.53 614.35 398.82L613.41 399.01Q613.65 399.72 613.77 400.27L611.36 400.27L611.36 401.16L612.2 401.16Q612.38 401.79 612.64 403.19L611.01 403.19L611.01 404.11L617.2 404.11L617.2 403.19L615.67 403.19ZM630.12 404.88L633.92 404.88L633.92 404.14L631.35 404.14Q632.27 403.52 633.09 402.68L632.47 402.1Q631.82 402.72 631.15 403.22L631.15 402.59L628.42 402.59L628.42 401.81L633.04 401.81L633.04 399.3L623.94 399.3L623.94 401.81L627.48 401.81L627.48 402.59L624.4 402.59L624.4 403.31L627.48 403.31L627.48 404.14L623.19 404.14L623.19 404.88L628.2 404.88Q626.23 405.7 623 406.51L623.24 407.33Q624.04 407.11 625.22 406.76L625.22 409.89L626.15 409.89L626.15 409.34L631.35 409.34L631.35 409.89L632.27 409.89L632.27 405.78L628.11 405.78Q629.18 405.37 630.12 404.88ZM621.56 405.1Q621.31 404.47 620.67 403.63L621.69 400.58L621.69 399.65L617.79 399.65L617.79 409.89L618.73 409.89L618.73 400.57L620.71 400.57L619.72 403.81Q620.35 404.54 620.63 405.13Q620.91 405.72 620.91 406.29Q620.91 406.98 620.64 407.24Q620.37 407.51 619.77 407.51Q619.45 407.51 619.03 407.45L619.23 408.36Q619.59 408.39 619.95 408.39Q620.95 408.39 621.39 407.96Q621.82 407.52 621.82 406.45Q621.82 405.83 621.63 405.28Q621.6 405.19 621.56 405.1ZM624.85 400.04L626.72 400.04L626.72 401.1L624.85 401.1L624.85 400.04ZM627.6 401.1L627.6 400.04L629.39 400.04L629.39 401.1L627.6 401.1ZM632.14 401.1L630.27 401.1L630.27 400.04L632.14 400.04L632.14 401.1ZM613.55 403.19Q613.4 402.37 613.1 401.16L615.26 401.16Q615.04 402.18 614.77 403.19L613.55 403.19ZM629.73 404.14L628.42 404.14L628.42 403.31L631.04 403.31Q630.51 403.69 629.73 404.14ZM611.8 409.43L616.48 409.43L616.48 405.29L611.8 405.29L611.8 409.43ZM612.7 406.19L615.58 406.19L615.58 408.53L612.7 408.53L612.7 406.19ZM631.35 407.21L626.15 407.21L626.15 406.48L631.35 406.48L631.35 407.21ZM626.15 408.65L626.15 407.9L631.35 407.9L631.35 408.65L626.15 408.65ZM597.44 417.86L596.42 417.86L596.42 421.73Q596.16 421.31 595.78 421.05Q595.66 420.97 595.53 420.9Q595.24 420.75 594.93 420.68Q594.67 420.62 594.39 420.62Q594.11 420.62 593.84 420.68Q593.42 420.78 593.04 421.01Q592.98 421.05 592.91 421.1Q592.37 421.48 592.03 422.14Q591.64 422.88 591.64 423.88Q591.64 424.88 592.03 425.62Q592.37 426.28 592.92 426.66Q592.98 426.7 593.04 426.74Q593.42 426.97 593.82 427.06Q594.1 427.13 594.39 427.13Q594.68 427.13 594.96 427.06Q595.27 426.99 595.57 426.83Q595.71 426.76 595.84 426.67Q596.21 426.39 596.47 425.94Q596.51 426.37 596.54 427L597.44 427L597.44 417.86ZM653.74 427L654.76 427L654.76 417.86L653.74 417.86L653.74 427ZM581.93 425.85Q581.42 426.14 580.75 426.14Q580.17 426.14 579.68 425.93Q579.46 425.84 579.26 425.7Q579.17 425.64 579.1 425.58Q578.56 425.15 578.26 424.45Q577.9 423.64 577.9 422.59Q577.9 421.55 578.26 420.74Q578.56 420.06 579.08 419.63Q579.16 419.56 579.26 419.5Q579.46 419.35 579.69 419.26Q580.17 419.05 580.75 419.05Q581.42 419.05 581.92 419.34Q582.5 419.67 582.86 420.38L583.72 419.88Q583.52 419.41 583.19 419.06Q582.92 418.76 582.57 418.55Q582.45 418.48 582.33 418.41Q581.64 418.07 580.77 418.07Q580.09 418.07 579.48 418.28Q579.09 418.42 578.74 418.64Q578.52 418.78 578.33 418.94Q577.7 419.46 577.3 420.24Q576.78 421.27 576.78 422.59Q576.78 423.91 577.3 424.94Q577.7 425.72 578.31 426.24Q578.52 426.41 578.74 426.55Q579.1 426.78 579.49 426.91Q580.09 427.13 580.77 427.13Q581.64 427.13 582.33 426.78Q582.45 426.72 582.57 426.65Q582.93 426.42 583.21 426.12Q583.52 425.77 583.72 425.32L582.86 424.81Q582.5 425.52 581.93 425.85ZM612.81 427L609.28 418.21L608.38 418.21L605.01 427L606.09 427L607.02 424.48L610.65 424.48L611.62 427L612.81 427ZM636.15 418.72Q635.13 418.21 633.85 418.21L631.45 418.21L631.45 427L633.85 427Q635.14 427 636.17 426.47Q636.69 426.21 637.09 425.83Q637.49 425.45 637.78 424.96Q638.36 423.97 638.36 422.59Q638.36 421.22 637.77 420.23Q637.47 419.73 637.05 419.34Q636.66 418.98 636.16 418.73L636.15 418.72ZM620.34 427.13Q621.1 427.13 621.6 426.79L621.26 425.95Q621.09 426.05 620.9 426.1Q620.69 426.17 620.45 426.17Q620.17 426.17 619.96 426.04Q619.84 425.98 619.75 425.89Q619.48 425.6 619.48 424.86L619.48 421.64L621.28 421.64L621.28 420.76L619.48 420.76L619.48 419.02L618.46 419.02L618.46 420.76L617.45 420.76L617.45 421.64L618.46 421.64L618.46 424.98Q618.46 426.2 619.07 426.73Q619.53 427.13 620.34 427.13ZM636.1 425.32Q635.2 426.05 633.7 426.05L632.52 426.05L632.52 419.15L633.7 419.15Q635.15 419.15 636.05 419.85Q636.17 419.94 636.29 420.06Q636.44 420.2 636.57 420.37Q637.23 421.23 637.23 422.59Q637.23 424.02 636.53 424.89Q636.42 425.02 636.3 425.15Q636.2 425.24 636.1 425.32ZM608.79 419.64L610.28 423.52L607.38 423.52L608.79 419.64ZM584.86 422.41Q584.55 423.07 584.55 423.88Q584.55 424.78 584.92 425.49Q584.94 425.53 584.96 425.56Q585.23 426.05 585.63 426.4Q585.82 426.57 586.06 426.71Q586.45 426.95 586.87 427.05Q587.19 427.13 587.54 427.13Q587.92 427.13 588.28 427.03Q588.66 426.93 589.01 426.71Q589.24 426.58 589.43 426.41Q589.83 426.06 590.11 425.56Q590.13 425.53 590.15 425.49Q590.51 424.78 590.51 423.88Q590.51 422.98 590.15 422.27Q590.13 422.23 590.11 422.18Q589.81 421.65 589.38 421.29Q589.21 421.15 589.01 421.03Q588.67 420.82 588.29 420.72Q587.93 420.62 587.54 420.62Q587.18 420.62 586.84 420.71Q586.44 420.81 586.06 421.04Q585.88 421.15 585.73 421.28Q585.27 421.65 584.97 422.2Q584.91 422.3 584.86 422.41ZM603.15 420.92Q602.59 420.62 601.88 420.62Q601.37 420.62 600.92 420.78Q600.65 420.87 600.4 421.01Q600.24 421.1 600.09 421.21Q599.63 421.57 599.33 422.12Q598.93 422.86 598.93 423.85Q598.93 424.88 599.33 425.62Q599.61 426.14 600.04 426.49Q600.22 426.63 600.42 426.74Q600.6 426.84 600.79 426.92Q601.33 427.13 601.95 427.13Q602.62 427.13 603.19 426.89Q603.3 426.84 603.41 426.78Q603.85 426.54 604.11 426.18Q604.23 426 604.3 425.79L603.52 425.35Q603.33 425.7 603.03 425.91Q602.62 426.19 602.01 426.19Q601.44 426.19 601 425.95Q600.79 425.84 600.62 425.67Q600.07 425.15 600.01 424.08L604.5 424.08Q604.54 423.8 604.54 423.47Q604.54 422.74 604.27 422.14Q604.24 422.08 604.22 422.03Q604.04 421.68 603.78 421.41Q603.57 421.17 603.29 421Q603.22 420.96 603.15 420.92ZM615.69 420.75Q615.12 421 614.78 421.75Q614.73 421.22 614.72 420.77L613.82 420.77L613.82 427L614.84 427L614.84 423.82Q614.84 422.72 615.25 422.16Q615.46 421.85 615.76 421.71Q616.02 421.58 616.34 421.58Q616.72 421.58 616.96 421.75L616.96 420.76Q616.67 420.62 616.31 420.62Q615.97 420.62 615.69 420.75ZM626.68 425.94Q626.83 425.61 626.83 425.22Q626.83 424.65 626.55 424.3Q626.54 424.28 626.53 424.27Q626.32 424.02 626.06 423.85Q625.95 423.79 625.83 423.74Q625.42 423.56 624.76 423.38Q624.26 423.24 623.98 423.13Q623.71 423.02 623.52 422.84Q623.46 422.78 623.42 422.71Q623.34 422.57 623.34 422.38Q623.34 422.16 623.43 422Q623.51 421.87 623.65 421.77Q623.97 421.56 624.5 421.56Q625.01 421.56 625.39 421.78Q625.56 421.88 625.69 422.01Q625.86 422.18 625.96 422.41L626.74 421.97Q626.66 421.72 626.52 421.52Q626.31 421.2 625.95 420.98Q625.36 420.62 624.55 420.62Q623.92 420.62 623.4 420.85Q622.98 421.03 622.7 421.34Q622.63 421.41 622.57 421.49Q622.49 421.6 622.43 421.73Q622.27 422.06 622.27 422.47Q622.27 422.98 622.51 423.3Q622.53 423.32 622.54 423.34Q622.68 423.5 622.83 423.62Q623.01 423.75 623.21 423.84Q623.61 424.01 624.25 424.19Q624.78 424.34 625.07 424.46Q625.36 424.57 625.56 424.78Q625.62 424.84 625.66 424.9Q625.76 425.07 625.76 425.3Q625.76 425.52 625.67 425.69Q625.58 425.85 625.42 425.96Q625.09 426.2 624.5 426.2Q623.83 426.2 623.4 425.89Q623.04 425.63 622.84 425.16L622.06 425.6Q622.15 425.89 622.31 426.13Q622.54 426.48 622.93 426.72Q623.59 427.13 624.5 427.13Q625.18 427.13 625.71 426.89Q626.16 426.68 626.44 426.34Q626.49 426.28 626.53 426.22Q626.62 426.08 626.68 425.94ZM643.76 420.92Q643.2 420.62 642.49 420.62Q641.98 420.62 641.52 420.78Q641.26 420.87 641.01 421.01Q640.85 421.1 640.7 421.21Q640.24 421.57 639.94 422.12Q639.54 422.86 639.54 423.85Q639.54 424.88 639.94 425.62Q640.22 426.14 640.65 426.49Q640.82 426.63 641.03 426.74Q641.21 426.84 641.4 426.92Q641.94 427.13 642.56 427.13Q643.23 427.13 643.79 426.89Q643.91 426.84 644.02 426.78Q644.46 426.54 644.71 426.18Q644.84 426 644.91 425.79L644.13 425.35Q643.94 425.7 643.64 425.91Q643.23 426.19 642.62 426.19Q642.04 426.19 641.6 425.95Q641.4 425.84 641.23 425.67Q640.68 425.15 640.62 424.08L645.1 424.08Q645.15 423.8 645.15 423.47Q645.15 422.74 644.88 422.14Q644.85 422.08 644.83 422.03Q644.65 421.68 644.39 421.41Q644.17 421.17 643.9 421Q643.83 420.96 643.76 420.92ZM650.01 420.67Q649.77 420.62 649.52 420.62Q649.2 420.62 648.9 420.7Q648.6 420.77 648.32 420.93Q648.2 420.99 648.08 421.08Q647.69 421.36 647.43 421.82Q647.38 421.37 647.36 420.77L646.46 420.77L646.46 429.78L647.48 429.78L647.48 426.01Q647.73 426.41 648.08 426.67Q648.22 426.77 648.37 426.85Q648.71 427.02 649.06 427.09Q649.29 427.13 649.52 427.13Q649.78 427.13 650.03 427.08Q650.46 426.99 650.86 426.74Q650.92 426.7 650.98 426.66Q651.53 426.28 651.87 425.62Q652.26 424.88 652.26 423.88Q652.26 422.88 651.87 422.14Q651.53 421.48 650.99 421.1Q650.93 421.05 650.86 421.01Q650.45 420.76 650.01 420.67ZM656.56 422.41Q656.25 423.07 656.25 423.88Q656.25 424.78 656.62 425.49Q656.64 425.53 656.66 425.56Q656.93 426.05 657.33 426.4Q657.52 426.57 657.76 426.71Q658.15 426.95 658.57 427.05Q658.89 427.13 659.24 427.13Q659.62 427.13 659.98 427.03Q660.36 426.93 660.71 426.71Q660.94 426.58 661.13 426.41Q661.53 426.06 661.81 425.56Q661.83 425.53 661.85 425.49Q662.21 424.78 662.21 423.88Q662.21 422.98 661.85 422.27Q661.83 422.23 661.81 422.18Q661.51 421.65 661.08 421.29Q660.91 421.15 660.71 421.03Q660.37 420.82 659.99 420.72Q659.63 420.62 659.24 420.62Q658.88 420.62 658.54 420.71Q658.14 420.81 657.76 421.04Q657.58 421.15 657.43 421.28Q656.97 421.65 656.67 422.2Q656.61 422.3 656.56 422.41ZM668.7 420.77L667.64 420.77L665.78 425.77L663.82 420.77L662.65 420.77L665.24 427.07L664.94 427.76Q664.64 428.46 664.38 428.71Q664.27 428.82 664.13 428.89Q663.96 428.96 663.75 428.96Q663.55 428.96 663.34 428.9Q663.13 428.83 662.99 428.72L662.59 429.55Q662.61 429.57 662.63 429.58Q663.05 429.92 663.75 429.92Q664.48 429.92 664.91 429.56Q664.94 429.54 664.96 429.51Q665.4 429.1 665.78 428.12L668.7 420.77ZM601.16 421.69Q601.48 421.56 601.84 421.56Q602.32 421.56 602.67 421.77Q602.83 421.87 602.97 422.01Q602.99 422.02 603 422.04Q603.4 422.48 603.44 423.25L600.04 423.25Q600.17 422.45 600.64 422.02Q600.65 422.01 600.67 421.99Q600.9 421.8 601.16 421.69ZM641.77 421.69Q642.08 421.56 642.45 421.56Q642.93 421.56 643.28 421.77Q643.44 421.87 643.58 422.01Q643.59 422.02 643.61 422.04Q644.01 422.48 644.05 423.25L640.65 423.25Q640.78 422.45 641.24 422.02Q641.26 422.01 641.28 421.99Q641.51 421.8 641.77 421.69ZM585.88 425.1Q585.63 424.58 585.63 423.88Q585.63 423.17 585.88 422.65Q586.1 422.2 586.46 421.93Q586.51 421.89 586.57 421.86Q586.71 421.76 586.88 421.7Q587.19 421.58 587.54 421.58Q587.91 421.58 588.23 421.71Q588.37 421.77 588.51 421.86Q588.58 421.9 588.65 421.96Q588.98 422.22 589.19 422.65Q589.44 423.17 589.44 423.88Q589.44 424.58 589.19 425.1Q588.98 425.53 588.65 425.79Q588.58 425.85 588.51 425.89Q588.37 425.98 588.23 426.04Q587.91 426.17 587.54 426.17Q587.19 426.17 586.88 426.05Q586.71 425.99 586.57 425.89Q586.51 425.86 586.46 425.82Q586.1 425.55 585.88 425.1ZM650.21 425.97Q649.85 426.17 649.39 426.17Q649.13 426.17 648.88 426.1Q648.67 426.05 648.46 425.94Q648.46 425.94 648.45 425.94Q648.03 425.71 647.76 425.2Q647.48 424.68 647.48 423.88Q647.48 423.07 647.76 422.56Q648.03 422.04 648.46 421.82L648.46 421.81Q648.67 421.7 648.89 421.65Q649.13 421.58 649.39 421.58Q649.85 421.58 650.21 421.78Q650.48 421.92 650.69 422.18Q651.19 422.78 651.19 423.88Q651.19 424.97 650.69 425.57Q650.48 425.83 650.21 425.97ZM657.58 425.1Q657.33 424.58 657.33 423.88Q657.33 423.17 657.58 422.65Q657.8 422.2 658.16 421.93Q658.21 421.89 658.27 421.86Q658.42 421.76 658.58 421.7Q658.89 421.58 659.24 421.58Q659.61 421.58 659.93 421.71Q660.07 421.77 660.21 421.86Q660.28 421.9 660.35 421.96Q660.68 422.22 660.89 422.65Q661.14 423.17 661.14 423.88Q661.14 424.58 660.89 425.1Q660.68 425.53 660.35 425.79Q660.28 425.85 660.21 425.89Q660.07 425.98 659.93 426.04Q659.61 426.17 659.24 426.17Q658.89 426.17 658.58 426.05Q658.42 425.99 658.27 425.89Q658.21 425.86 658.16 425.82Q657.8 425.55 657.58 425.1ZM595.22 426.03Q594.89 426.17 594.51 426.17Q594.05 426.17 593.69 425.97Q593.42 425.83 593.2 425.57Q592.71 424.97 592.71 423.88Q592.71 422.79 593.2 422.2Q593.42 421.94 593.69 421.79Q594.05 421.6 594.51 421.6Q594.89 421.6 595.22 421.73Q595.56 421.86 595.85 422.15Q596.42 422.7 596.42 423.88Q596.42 425.06 595.85 425.62Q595.57 425.9 595.22 426.03Z" fill="#242828" fill-opacity="1.000000" fill-rule="evenodd"/>
		<rect id="网络/ELB备份 5" width="48.000000" height="48.000000" transform="translate(598.000000 344.000000)" fill="#D7D7D7" fill-opacity="0"/>
		<path id="形状" d="" fill="#FFFFFF" fill-opacity="1.000000" fill-rule="nonzero"/>
		<path id="path" d="M637.4 374.06C637.19 374.06 636.99 374.11 636.79 374.2L622 381.2L607.22 374.21C607.03 374.11 606.82 374.07 606.61 374.07C606.5 374.07 606.39 374.09 606.28 374.12C606.17 374.15 606.07 374.19 605.97 374.24C605.86 374.29 605.77 374.35 605.68 374.42C605.59 374.49 605.51 374.57 605.44 374.65C605.36 374.74 605.3 374.83 605.24 374.92C605.19 375.02 605.14 375.12 605.1 375.23C605.07 375.34 605.04 375.44 605.03 375.56C605.02 375.67 605.01 375.78 605.02 375.89C605.01 376.06 605.03 376.23 605.07 376.4C605.12 376.57 605.18 376.72 605.27 376.87C605.35 377.02 605.46 377.16 605.59 377.28C605.71 377.39 605.85 377.49 606 377.57L621.39 384.86L621.4 384.86C621.59 384.95 621.8 385 622.01 385C622.23 385 622.43 384.95 622.62 384.86L638.01 377.57C638.16 377.49 638.3 377.39 638.42 377.28C638.55 377.16 638.65 377.02 638.74 376.87C638.83 376.72 638.89 376.57 638.93 376.4C638.98 376.23 639 376.06 638.99 375.89C639 375.78 639 375.67 638.98 375.56C638.97 375.44 638.94 375.34 638.9 375.23C638.87 375.12 638.82 375.02 638.77 374.92C638.71 374.83 638.65 374.73 638.57 374.65C638.5 374.57 638.42 374.49 638.33 374.42C638.24 374.35 638.15 374.29 638.05 374.24C637.95 374.19 637.84 374.15 637.73 374.12C637.62 374.09 637.52 374.07 637.4 374.07L637.4 374.06ZM637.4 366.17C637.19 366.17 636.99 366.22 636.79 366.31L622 373.31L607.2 366.31C607.01 366.24 606.8 366.2 606.59 366.18C606.48 366.18 606.37 366.2 606.27 366.23C606.16 366.26 606.05 366.3 605.95 366.35C605.85 366.4 605.76 366.46 605.67 366.53C605.58 366.6 605.5 366.67 605.43 366.76C605.35 366.84 605.29 366.93 605.23 367.03C605.18 367.13 605.13 367.23 605.09 367.34C605.06 367.44 605.03 367.55 605.02 367.66C605 367.77 605 367.88 605.01 368C605 368.17 605.02 368.34 605.06 368.5C605.1 368.67 605.17 368.83 605.26 368.98C605.34 369.13 605.45 369.26 605.57 369.38C605.7 369.5 605.84 369.6 605.99 369.68L621.38 376.95C621.57 377.05 621.77 377.09 621.99 377.09C622.2 377.09 622.4 377.05 622.59 376.95L637.98 369.68C638.14 369.6 638.28 369.5 638.4 369.38C638.53 369.26 638.64 369.13 638.73 368.98C638.82 368.83 638.88 368.68 638.93 368.51C638.97 368.34 638.99 368.17 638.99 368C639 367.88 639 367.77 638.98 367.66C638.97 367.55 638.94 367.44 638.91 367.33C638.87 367.23 638.83 367.13 638.77 367.03C638.71 366.93 638.65 366.84 638.58 366.75C638.5 366.67 638.42 366.59 638.33 366.52C638.24 366.46 638.15 366.4 638.05 366.35C637.95 366.3 637.84 366.26 637.73 366.23C637.63 366.2 637.52 366.18 637.4 366.17ZM605.99 361.78L621.38 369.06C621.57 369.15 621.77 369.2 621.99 369.2C622.2 369.2 622.4 369.15 622.59 369.06L637.98 361.78C638.13 361.7 638.27 361.6 638.39 361.48C638.51 361.36 638.61 361.23 638.7 361.08C638.79 360.93 638.85 360.77 638.9 360.61C638.94 360.44 638.97 360.27 638.97 360.1C638.97 359.93 638.94 359.76 638.9 359.6C638.85 359.43 638.79 359.28 638.7 359.13C638.61 358.98 638.51 358.85 638.39 358.73C638.27 358.61 638.13 358.5 637.98 358.42L622.59 351.14C622.4 351.04 622.2 351 621.99 351C621.77 351 621.57 351.04 621.38 351.14L605.98 358.42C605.83 358.5 605.69 358.61 605.57 358.73C605.45 358.85 605.34 358.98 605.26 359.13C605.17 359.28 605.11 359.43 605.06 359.6C605.02 359.76 605 359.93 605 360.1C605 360.27 605.02 360.44 605.06 360.61C605.11 360.77 605.17 360.93 605.26 361.08C605.34 361.22 605.45 361.36 605.57 361.48C605.69 361.6 605.83 361.7 605.98 361.78L605.99 361.78Z" fill="#00C4BE" fill-opacity="1.000000" fill-rule="nonzero"/>
		<rect id="矩形 1" x="598.000000" y="344.000000" rx="10.667077" width="48.000000" height="48.000000" fill="#25C251" fill-opacity="1.000000"/>
		<rect id="矩形 1" x="598.000000" y="344.000000" rx="10.667077" width="48.000000" height="48.000000" fill="url(#paint_linear_138_20875_0)" fill-opacity="0"/>
		<path id="Fill 1备份 3" d="M608.52 352C607.13 352 606 353.13 606 354.53L606 373.3C606 374.52 606.82 375.95 607.88 376.56L620.11 383.54C620.63 383.83 621.3 384 622 384C622.69 384 623.36 383.83 623.88 383.54L636.11 376.56C637.17 375.95 638 374.52 638 373.3L638 354.53C638 353.13 636.86 352 635.47 352L608.52 352Z" fill="#FFFFFF" fill-opacity="1.000000" fill-rule="evenodd"/>
		<mask id="mask_138_20880" fill="white">
			<path id="形状结合" d="M619.332 356L612.666 356C611.93 356 611.332 356.597 611.332 357.333L611.332 372C611.332 372.736 611.93 373.333 612.666 373.333L619.332 373.333C620.068 373.333 620.666 372.736 620.666 372L620.666 357.333C620.666 356.597 620.068 356 619.332 356ZM623.332 356L631.332 356C632.068 356 632.666 356.597 632.666 357.334L632.666 362.667C632.666 363.403 632.068 364 631.332 364L623.332 364C622.596 364 622 363.403 622 362.667L622 357.334C622 356.597 622.596 356 623.332 356ZM631.332 365.334L623.332 365.334C622.596 365.334 622 365.931 622 366.667L622 372.001C622 372.737 622.596 373.334 623.332 373.334L631.332 373.334C632.068 373.334 632.666 372.737 632.666 372.001L632.666 366.667C632.666 365.931 632.068 365.334 631.332 365.334Z" clip-rule="evenodd" fill="" fill-opacity="1.000000" fill-rule="evenodd"/>
		</mask>
		<path id="形状结合" d="M619.332 356L612.666 356C611.93 356 611.332 356.597 611.332 357.333L611.332 372C611.332 372.736 611.93 373.333 612.666 373.333L619.332 373.333C620.068 373.333 620.666 372.736 620.666 372L620.666 357.333C620.666 356.597 620.068 356 619.332 356ZM623.332 356L631.332 356C632.068 356 632.666 356.597 632.666 357.334L632.666 362.667C632.666 363.403 632.068 364 631.332 364L623.332 364C622.596 364 622 363.403 622 362.667L622 357.334C622 356.597 622.596 356 623.332 356ZM631.332 365.334L623.332 365.334C622.596 365.334 622 365.931 622 366.667L622 372.001C622 372.737 622.596 373.334 623.332 373.334L631.332 373.334C632.068 373.334 632.666 372.737 632.666 372.001L632.666 366.667C632.666 365.931 632.068 365.334 631.332 365.334Z" clip-rule="evenodd" fill="#24C251" fill-opacity="1.000000" fill-rule="evenodd" mask="url(#mask_138_20880)"/>
		<path id="形状结合" d="M619.332 356L612.666 356C611.93 356 611.332 356.597 611.332 357.333L611.332 372C611.332 372.736 611.93 373.333 612.666 373.333L619.332 373.333C620.068 373.333 620.666 372.736 620.666 372L620.666 357.333C620.666 356.597 620.068 356 619.332 356ZM623.332 356L631.332 356C632.068 356 632.666 356.597 632.666 357.334L632.666 362.667C632.666 363.403 632.068 364 631.332 364L623.332 364C622.596 364 622 363.403 622 362.667L622 357.334C622 356.597 622.596 356 623.332 356ZM631.332 365.334L623.332 365.334C622.596 365.334 622 365.931 622 366.667L622 372.001C622 372.737 622.596 373.334 623.332 373.334L631.332 373.334C632.068 373.334 632.666 372.737 632.666 372.001L632.666 366.667C632.666 365.931 632.068 365.334 631.332 365.334Z" clip-rule="evenodd" fill="url(#paint_linear_138_20880_0)" fill-opacity="0.000000" fill-rule="evenodd" mask="url(#mask_138_20880)"/>
		<path id="形状结合" d="" clip-rule="evenodd" fill="#979797" fill-opacity="0.000000" fill-rule="evenodd"/>
		<g clip-path="url(#clip144_20940)">
			<rect id="矩形 1" x="372.000000" y="69.000000" rx="10.667078" width="48.000000" height="48.000000" fill="#1476FF" fill-opacity="1.000000"/>
			<rect id="矩形 1" x="372.000000" y="69.000000" rx="10.667078" width="48.000000" height="48.000000" fill="url(#paint_linear_144_20942_0)" fill-opacity="0"/>
			<path id="形状结合" d="M382.52 77C381.13 77 380 78.13 380 79.53L380 98.3C380 99.52 380.82 100.95 381.88 101.56L394.11 108.54C394.63 108.83 395.3 109 396 109C396.69 109 397.36 108.83 397.88 108.54L410.11 101.56C411.17 100.95 412 99.52 412 98.3L412 79.53C412 78.13 410.86 77 409.47 77L382.52 77ZM395.92 83.16L387.85 81.27C387.24 81.13 386.66 81.59 386.66 82.22L386.66 99.11C386.66 99.74 387.24 100.2 387.85 100.06L395.91 98.21C396.35 98.11 396.66 97.72 396.66 97.27L396.66 84.1C396.66 83.65 396.35 83.26 395.92 83.16Z" fill="#FFFFFF" fill-opacity="1.000000" fill-rule="evenodd"/>
			<path id="矩形备份 27" d="M404.51 81.27L396.44 83.15C396 83.26 395.69 83.65 395.69 84.1L395.69 97.27C395.69 97.72 396 98.11 396.44 98.21L404.51 100.06C405.11 100.2 405.69 99.74 405.69 99.11L405.69 82.22C405.69 81.59 405.11 81.13 404.51 81.27Z" fill="#D8D8D8" fill-opacity="0" fill-rule="evenodd"/>
			<path id="矩形备份 27" d="M405.69 82.91L405.69 82.22C405.69 82.05 405.66 81.91 405.6 81.78L404.97 82.09C404.98 82.12 405 82.18 405 82.22L405 82.91L405.69 82.91ZM405.69 85.74L405.69 84.32L405 84.32L405 85.74L405.69 85.74ZM405.69 88.55L405.69 87.14L405 87.14L405 88.55L405.69 88.55ZM405.69 91.37L405.69 89.96L405 89.96L405 91.37L405.69 91.37ZM405.69 94.18L405.69 92.77L405 92.77L405 94.18L405.69 94.18ZM405.69 97L405.69 95.59L405 95.59L405 97L405.69 97ZM405.6 99.54C405.66 99.41 405.69 99.27 405.69 99.11L405.69 98.41L405 98.41L405 99.11C405 99.14 405 99.17 404.99 99.2L405.6 99.54ZM403.84 99.9L404.51 100.06C404.66 100.09 404.81 100.09 404.95 100.06L404.79 99.38C404.76 99.38 404.69 99.39 404.66 99.38L404 99.23L403.84 99.9ZM401.15 99.29L402.5 99.6L402.65 98.92L401.3 98.61L401.15 99.29ZM398.46 98.67L399.81 98.98L399.96 98.3L398.61 98L398.46 98.67ZM396.14 98.08C396.23 98.14 396.34 98.18 396.44 98.21L397.11 98.36L397.27 97.69L396.6 97.53C396.6 97.53 396.52 97.51 396.52 97.5L396.14 98.08ZM395.69 96.61L395.69 97.27C395.69 97.38 395.71 97.49 395.75 97.59L396.4 97.36C396.4 97.34 396.38 97.29 396.38 97.27L396.38 96.61L395.69 96.61ZM395.69 93.98L395.69 95.29L396.38 95.29L396.38 93.98L395.69 93.98ZM395.69 91.34L395.69 92.65L396.38 92.65L396.38 91.34L395.69 91.34ZM395.69 88.71L395.69 90.02L396.38 90.02L396.38 88.71L395.69 88.71ZM395.69 86.07L395.69 87.39L396.38 87.39L396.38 86.07L395.69 86.07ZM395.75 83.77C395.71 83.88 395.69 83.98 395.69 84.1L395.69 84.76L396.38 84.76L396.38 84.1C396.39 84.09 396.39 84.01 396.4 84L395.75 83.77ZM397.11 83L396.44 83.15C396.33 83.18 396.23 83.22 396.14 83.28L396.51 83.86C396.53 83.85 396.58 83.83 396.6 83.83L397.27 83.67L397.11 83ZM399.8 82.37L398.45 82.68L398.61 83.36L399.96 83.04L399.8 82.37ZM402.49 81.74L401.15 82.05L401.3 82.73L402.65 82.41L402.49 81.74ZM403.84 81.43L403.99 82.1L404.66 81.94C404.69 81.93 404.73 81.93 404.76 81.93L404.95 81.27C404.81 81.24 404.66 81.24 404.51 81.27L403.84 81.43Z" fill="url(#paint_linear_144_20945_0)" fill-opacity="1.000000" fill-rule="evenodd"/>
		</g>
		<path id="编译构建CodeArts Build" d="M384.02 408.78L384.02 403.99L378.39 403.99Q378.42 403.29 378.42 402.91L383.88 402.91L383.88 400.09L381.47 400.09Q381.18 399.27 380.98 398.79L380.04 398.99Q380.2 399.35 380.48 400.09L377.63 400.09L377.63 402.64Q377.63 405.02 377.35 406.51Q377.06 408 376.33 409.12L377.06 409.58Q378.19 407.84 378.38 404.29L378.38 409.77L379.16 409.77L379.16 407.14L380.05 407.14L380.05 409.21L380.76 409.21L380.76 407.14L381.65 407.14L381.65 409.21L382.37 409.21L382.37 407.14L383.24 407.14L383.24 408.61Q383.24 408.82 383.18 408.89Q383.11 408.96 382.91 408.94L382.55 408.88L382.72 409.69Q383 409.73 383.29 409.73Q383.69 409.73 383.85 409.53Q383.86 409.52 383.87 409.51Q384.02 409.29 384.02 408.78ZM400.28 404.11Q400.98 404.93 401.4 405.59L401.99 404.9Q401.59 404.4 401.11 403.85Q400.62 403.31 400.28 402.97L400.28 402.12L401.62 402.12L401.62 401.22L400.28 401.22L400.28 398.88L399.37 398.88L399.37 401.22L397.72 401.22L397.72 402.12L399.37 402.12L399.37 402.18Q399.05 403.26 398.5 404.36Q397.96 405.47 397.34 406.31L397.97 407.03Q398.76 405.96 399.37 404.32L399.37 409.92L400.28 409.92L400.28 404.11ZM415.97 408.43L416.84 408.43L416.84 407.35L420.03 407.35L420.03 406.55L416.84 406.55L416.84 405.68L419.62 405.68L419.62 404.88L416.84 404.88L416.84 403.97L419.4 403.97L419.4 402.3L420.36 402.3L420.36 401.5L419.4 401.5L419.4 399.78L416.84 399.78L416.84 398.9L415.97 398.9L415.97 399.78L413.74 399.78L413.74 400.56L415.97 400.56L415.97 401.5L413.27 401.5L413.27 402.3L415.97 402.3L415.97 403.2L413.72 403.2L413.72 403.97L415.97 403.97L415.97 404.88L413.64 404.88L413.64 405.68L415.97 405.68L415.97 406.55L413.08 406.55L413.08 407.35L415.97 407.35L415.97 408.43ZM408.05 401.59Q408.05 400.87 408.03 400.58L403.69 400.58Q403.92 399.96 404.15 399.11L403.22 398.91Q402.98 399.97 402.52 401.11Q402.06 402.24 401.5 403.14L402.19 403.73Q402.85 402.68 403.36 401.46L407.09 401.46L407.1 402.59Q407.1 405.5 406.92 407.71Q406.88 408.17 406.79 408.4Q406.73 408.58 406.6 408.68Q406.56 408.71 406.51 408.73Q406.32 408.83 405.96 408.83Q405.38 408.83 404.36 408.72L404.59 409.63Q405.38 409.7 406.16 409.7Q407 409.68 407.37 409.33Q407.74 408.98 407.82 408.1Q407.93 406.82 407.98 404.96Q408.05 403.09 408.05 401.59ZM373.67 403.64Q374.05 403.55 374.41 403.48Q374.75 403.39 375.46 403.28Q374.57 404.91 374.32 405.3Q374.22 405.46 374.12 405.53Q374.02 405.6 373.8 405.65L374 406.57L374.58 406.41L376.99 405.82L376.97 404.98L375.18 405.49Q375.66 404.79 376.3 403.52Q376.94 402.25 377.33 401.32L376.62 400.96Q376.4 401.41 375.86 402.49L374.67 402.68Q374.91 402.25 375.37 401.26Q375.83 400.26 376.2 399.36L375.37 399Q375.07 399.82 374.61 400.87Q374.15 401.91 373.86 402.43Q373.75 402.62 373.48 402.74L373.67 403.64ZM387.14 400.69Q387.68 401.36 387.97 401.79L388.75 401.16Q388.45 400.74 387.89 400.06Q387.34 399.38 386.98 399L386.23 399.62Q386.59 400.02 387.14 400.69ZM392.72 403.09Q394.02 403.81 396.23 404.35L396.58 403.52Q394.72 403.1 393.6 402.58Q394.25 402.13 394.73 401.6Q395.22 401.08 395.62 400.4L395.62 399.54L389.44 399.54L389.44 400.4L389.96 400.4Q390.85 401.76 391.87 402.53Q390.72 403.07 388.82 403.53L389.23 404.35Q391.39 403.79 392.72 403.09ZM417.72 408.77Q416.71 408.77 415.43 408.71Q414.24 408.65 413.43 408.34Q413.17 408.24 412.93 408.1Q412.43 407.82 412.03 407.38Q412.39 406.65 412.59 405.84Q412.8 405.02 412.91 403.92L412.91 403.13L411.05 403.13L412.88 400.62L412.88 399.76L409.93 399.76L409.93 400.61L411.91 400.61L410.04 403.15L410.04 403.96L412.04 403.96Q411.88 405.55 411.44 406.56Q411.06 405.91 410.69 404.84L409.97 405.07Q410.39 406.48 411.02 407.4Q410.48 408.3 409.55 409.08L410.18 409.79Q411.07 408.9 411.6 408.11Q411.96 408.47 412.38 408.74Q412.78 408.99 413.22 409.16Q414.15 409.5 415.4 409.56Q416.41 409.62 417.84 409.62Q419.12 409.62 420.19 409.57L420.38 408.7Q419.05 408.77 417.72 408.77ZM392.72 402.08Q391.76 401.45 390.98 400.4L394.53 400.4Q394.46 400.51 394.39 400.61Q393.73 401.48 392.72 402.08ZM416.84 400.56L418.55 400.56L418.55 401.5L416.84 401.5L416.84 400.56ZM383.03 400.92L383.03 402.1L378.42 402.1L378.42 400.92L383.03 400.92ZM416.84 402.3L418.55 402.3L418.55 403.2L416.84 403.2L416.84 402.3ZM405.49 406.63Q405.73 407.28 405.83 407.58L406.6 407.23Q406.32 406.44 405.94 405.54Q405.56 404.64 405.27 404.04L404.54 404.36Q404.77 404.82 405.2 405.89Q404.58 406.04 403.04 406.33Q403.41 405.71 403.89 404.64Q404.36 403.56 404.65 402.73L403.79 402.43Q403.53 403.26 403.06 404.32Q402.59 405.38 402.2 406.02Q402.11 406.21 402.01 406.3Q401.91 406.38 401.71 406.46L402.02 407.38Q404.44 406.89 405.49 406.63ZM388.64 406.69L387.84 407.58L387.84 402.72L385.52 402.72L385.52 403.67L386.93 403.67L386.93 407.98Q386.93 408.23 386.85 408.4Q386.78 408.58 386.59 408.79L387.24 409.46L387.79 408.86L389.1 407.47L388.64 406.69ZM393.18 405.88L395.87 405.88L395.87 405.06L393.18 405.06L393.18 403.89L392.27 403.89L392.27 405.06L389.71 405.06L389.71 405.88L392.27 405.88L392.27 407.15L389.27 407.15L389.27 408.01L392.27 408.01L392.27 409.87L393.18 409.87L393.18 408.01L396.3 408.01L396.3 407.15L393.18 407.15L393.18 405.88ZM379.16 406.36L379.16 404.77L380.05 404.77L380.05 406.36L379.16 406.36ZM380.76 406.36L380.76 404.77L381.65 404.77L381.65 406.36L380.76 406.36ZM382.37 406.36L382.37 404.77L383.24 404.77L383.24 406.36L382.37 406.36ZM375.25 408.42Q376.24 408.12 376.79 407.94L376.73 407.04Q376.13 407.22 375.13 407.51Q374.14 407.79 373.56 407.95L373.7 408.88Q374.27 408.72 375.25 408.42ZM377.23 417.86L376.21 417.86L376.21 421.73Q375.95 421.31 375.58 421.05Q375.45 420.97 375.32 420.9Q375.03 420.75 374.73 420.68Q374.46 420.62 374.18 420.62Q373.9 420.62 373.63 420.68Q373.22 420.78 372.83 421.01Q372.77 421.05 372.7 421.1Q372.16 421.48 371.82 422.14Q371.44 422.88 371.44 423.88Q371.44 424.88 371.82 425.62Q372.17 426.28 372.71 426.66Q372.77 426.7 372.83 426.74Q373.21 426.97 373.61 427.06Q373.89 427.13 374.18 427.13Q374.47 427.13 374.75 427.06Q375.07 426.99 375.36 426.83Q375.5 426.76 375.63 426.67Q376.01 426.39 376.26 425.94Q376.31 426.37 376.33 427L377.23 427L377.23 417.86ZM428.79 427L429.82 427L429.82 417.86L428.79 417.86L428.79 427ZM437.1 417.86L436.08 417.86L436.08 421.73Q435.82 421.31 435.44 421.05Q435.32 420.97 435.19 420.9Q434.9 420.75 434.59 420.68Q434.33 420.62 434.05 420.62Q433.77 420.62 433.5 420.68Q433.08 420.78 432.7 421.01Q432.64 421.05 432.57 421.1Q432.03 421.48 431.69 422.14Q431.3 422.88 431.3 423.88Q431.3 424.88 431.69 425.62Q432.03 426.28 432.58 426.66Q432.64 426.7 432.7 426.74Q433.08 426.97 433.48 427.06Q433.76 427.13 434.05 427.13Q434.34 427.13 434.62 427.06Q434.93 426.99 435.23 426.83Q435.37 426.76 435.5 426.67Q435.87 426.39 436.13 425.94Q436.17 426.37 436.2 427L437.1 427L437.1 417.86ZM361.72 425.85Q361.21 426.14 360.54 426.14Q359.96 426.14 359.47 425.93Q359.25 425.84 359.05 425.7Q358.97 425.64 358.89 425.58Q358.36 425.15 358.05 424.45Q357.7 423.64 357.7 422.59Q357.7 421.55 358.05 420.74Q358.35 420.06 358.87 419.63Q358.96 419.56 359.05 419.5Q359.26 419.35 359.48 419.26Q359.97 419.05 360.54 419.05Q361.21 419.05 361.72 419.34Q362.29 419.67 362.65 420.38L363.51 419.88Q363.31 419.41 362.98 419.06Q362.71 418.76 362.36 418.55Q362.25 418.48 362.12 418.41Q361.43 418.07 360.56 418.07Q359.88 418.07 359.27 418.28Q358.89 418.42 358.53 418.64Q358.32 418.78 358.12 418.94Q357.5 419.46 357.1 420.24Q356.57 421.27 356.57 422.59Q356.57 423.91 357.1 424.94Q357.49 425.72 358.11 426.24Q358.31 426.41 358.53 426.55Q358.89 426.78 359.28 426.91Q359.88 427.13 360.56 427.13Q361.43 427.13 362.12 426.78Q362.25 426.72 362.36 426.65Q362.72 426.42 363 426.12Q363.31 425.77 363.51 425.32L362.65 424.81Q362.29 425.52 361.72 425.85ZM392.6 427L389.08 418.21L388.18 418.21L384.8 427L385.88 427L386.81 424.48L390.44 424.48L391.42 427L392.6 427ZM417.19 423.2Q416.78 422.63 415.92 422.39Q416.48 422.12 416.76 421.68Q417.05 421.23 417.05 420.59Q417.05 420.04 416.83 419.59Q416.76 419.46 416.68 419.33Q416.63 419.26 416.57 419.19Q416.21 418.75 415.62 418.5Q414.94 418.21 414.01 418.21L411.24 418.21L411.24 427L414.38 427Q415.96 427 416.76 426.34Q417.03 426.13 417.2 425.85Q417.56 425.3 417.56 424.51Q417.56 423.72 417.19 423.2ZM426.19 419.61Q426.3 419.65 426.42 419.65Q426.54 419.65 426.64 419.62Q426.78 419.56 426.9 419.44Q427.02 419.31 427.07 419.16Q427.1 419.06 427.1 418.96Q427.1 418.8 427.05 418.67Q427 418.56 426.9 418.46Q426.81 418.37 426.69 418.31Q426.57 418.26 426.42 418.26Q426.3 418.26 426.19 418.3Q426.06 418.35 425.94 418.47Q425.84 418.58 425.79 418.72Q425.75 418.83 425.75 418.96Q425.75 419.07 425.78 419.17Q425.83 419.32 425.94 419.44Q426.05 419.56 426.19 419.61ZM400.13 427.13Q400.9 427.13 401.39 426.79L401.05 425.95Q400.88 426.05 400.7 426.1Q400.48 426.17 400.25 426.17Q399.96 426.17 399.75 426.04Q399.64 425.98 399.55 425.89Q399.28 425.6 399.28 424.86L399.28 421.64L401.08 421.64L401.08 420.76L399.28 420.76L399.28 419.02L398.26 419.02L398.26 420.76L397.25 420.76L397.25 421.64L398.26 421.64L398.26 424.98Q398.26 426.2 398.86 426.73Q399.32 427.13 400.13 427.13ZM412.31 422.04L412.31 419.16L413.83 419.16Q414.82 419.16 415.37 419.54Q415.65 419.74 415.79 420.02Q415.92 420.27 415.92 420.59Q415.92 420.95 415.77 421.22Q415.63 421.47 415.37 421.65Q414.83 422.04 413.83 422.04L412.31 422.04ZM388.58 419.64L390.07 423.52L387.17 423.52L388.58 419.64ZM364.65 422.41Q364.34 423.07 364.34 423.88Q364.34 424.78 364.71 425.49Q364.73 425.53 364.75 425.56Q365.02 426.05 365.42 426.4Q365.62 426.57 365.85 426.71Q366.24 426.95 366.66 427.05Q366.99 427.13 367.33 427.13Q367.71 427.13 368.07 427.03Q368.45 426.93 368.81 426.71Q369.03 426.58 369.22 426.41Q369.62 426.06 369.9 425.56Q369.92 425.53 369.94 425.49Q370.31 424.78 370.31 423.88Q370.31 422.98 369.94 422.27Q369.92 422.23 369.9 422.18Q369.61 421.65 369.17 421.29Q369 421.15 368.81 421.03Q368.46 420.82 368.08 420.72Q367.72 420.62 367.33 420.62Q366.97 420.62 366.64 420.71Q366.23 420.81 365.85 421.04Q365.68 421.15 365.52 421.28Q365.06 421.65 364.76 422.2Q364.7 422.3 364.65 422.41ZM382.94 420.92Q382.39 420.62 381.67 420.62Q381.16 420.62 380.71 420.78Q380.44 420.87 380.19 421.01Q380.03 421.1 379.89 421.21Q379.43 421.57 379.12 422.12Q378.72 422.86 378.72 423.85Q378.72 424.88 379.12 425.62Q379.4 426.14 379.83 426.49Q380.01 426.63 380.21 426.74Q380.39 426.84 380.58 426.92Q381.12 427.13 381.74 427.13Q382.41 427.13 382.98 426.89Q383.09 426.84 383.2 426.78Q383.64 426.54 383.9 426.18Q384.02 426 384.1 425.79L383.31 425.35Q383.12 425.7 382.82 425.91Q382.41 426.19 381.8 426.19Q381.23 426.19 380.79 425.95Q380.58 425.84 380.41 425.67Q379.86 425.15 379.8 424.08L384.29 424.08Q384.33 423.8 384.33 423.47Q384.33 422.74 384.06 422.14Q384.04 422.08 384.01 422.03Q383.83 421.68 383.58 421.41Q383.36 421.17 383.08 421Q383.01 420.96 382.94 420.92ZM395.48 420.75Q394.91 421 394.57 421.75Q394.52 421.22 394.51 420.77L393.61 420.77L393.61 427L394.63 427L394.63 423.82Q394.63 422.72 395.04 422.16Q395.25 421.85 395.55 421.71Q395.81 421.58 396.13 421.58Q396.52 421.58 396.76 421.75L396.76 420.76Q396.47 420.62 396.11 420.62Q395.76 420.62 395.48 420.75ZM406.48 425.94Q406.62 425.61 406.62 425.22Q406.62 424.65 406.35 424.3Q406.33 424.28 406.32 424.27Q406.12 424.02 405.85 423.85Q405.74 423.79 405.62 423.74Q405.22 423.56 404.55 423.38Q404.05 423.24 403.77 423.13Q403.5 423.02 403.31 422.84Q403.25 422.78 403.21 422.71Q403.13 422.57 403.13 422.38Q403.13 422.16 403.22 422Q403.3 421.87 403.44 421.77Q403.76 421.56 404.29 421.56Q404.81 421.56 405.18 421.78Q405.35 421.88 405.48 422.01Q405.65 422.18 405.76 422.41L406.53 421.97Q406.45 421.72 406.32 421.52Q406.1 421.2 405.74 420.98Q405.15 420.62 404.34 420.62Q403.72 420.62 403.19 420.85Q402.77 421.03 402.49 421.34Q402.42 421.41 402.37 421.49Q402.28 421.6 402.22 421.73Q402.06 422.06 402.06 422.47Q402.06 422.98 402.31 423.3Q402.32 423.32 402.34 423.34Q402.47 423.5 402.63 423.62Q402.8 423.75 403.01 423.84Q403.4 424.01 404.04 424.19Q404.57 424.34 404.86 424.46Q405.15 424.57 405.35 424.78Q405.41 424.84 405.45 424.9Q405.55 425.07 405.55 425.3Q405.55 425.52 405.46 425.69Q405.37 425.85 405.21 425.96Q404.88 426.2 404.29 426.2Q403.62 426.2 403.19 425.89Q402.84 425.63 402.64 425.16L401.86 425.6Q401.94 425.89 402.1 426.13Q402.33 426.48 402.72 426.72Q403.38 427.13 404.29 427.13Q404.98 427.13 405.5 426.89Q405.95 426.68 406.23 426.34Q406.28 426.28 406.32 426.22Q406.41 426.08 406.48 425.94ZM424.04 420.76L423.02 420.76L423.02 424.29Q423.02 424.91 422.77 425.33Q422.58 425.64 422.31 425.84Q422.22 425.91 422.12 425.96Q421.94 426.05 421.74 426.1Q421.51 426.17 421.26 426.17Q420.8 426.17 420.49 425.95Q420.34 425.85 420.22 425.69Q419.87 425.21 419.87 424.32L419.87 420.76L418.85 420.76L418.85 424.6Q418.85 425.81 419.45 426.47Q419.65 426.69 419.89 426.83Q420.38 427.13 421.04 427.13Q421.47 427.13 421.85 427Q422.04 426.94 422.22 426.84Q422.39 426.75 422.53 426.63Q422.86 426.37 423.07 425.98Q423.12 426.38 423.14 427L424.04 427L424.04 420.76ZM425.9 427L426.92 427L426.92 420.77L425.9 420.77L425.9 427ZM380.95 421.69Q381.27 421.56 381.64 421.56Q382.11 421.56 382.46 421.77Q382.62 421.87 382.76 422.01Q382.78 422.02 382.8 422.04Q383.2 422.48 383.23 423.25L379.83 423.25Q379.96 422.45 380.43 422.02Q380.45 422.01 380.46 421.99Q380.69 421.8 380.95 421.69ZM365.68 425.1Q365.42 424.58 365.42 423.88Q365.42 423.17 365.68 422.65Q365.9 422.2 366.26 421.93Q366.31 421.89 366.36 421.86Q366.51 421.76 366.67 421.7Q366.98 421.58 367.33 421.58Q367.7 421.58 368.02 421.71Q368.17 421.77 368.3 421.86Q368.37 421.9 368.44 421.96Q368.78 422.22 368.98 422.65Q369.23 423.17 369.23 423.88Q369.23 424.58 368.98 425.1Q368.78 425.53 368.44 425.79Q368.37 425.85 368.3 425.89Q368.17 425.98 368.02 426.04Q367.7 426.17 367.33 426.17Q366.98 426.17 366.67 426.05Q366.51 425.99 366.36 425.89Q366.31 425.86 366.26 425.82Q365.9 425.55 365.68 425.1ZM375.01 426.03Q374.68 426.17 374.3 426.17Q373.84 426.17 373.48 425.97Q373.21 425.83 373 425.57Q372.5 424.97 372.5 423.88Q372.5 422.79 373 422.2Q373.21 421.94 373.48 421.79Q373.84 421.6 374.3 421.6Q374.68 421.6 375.01 421.73Q375.36 421.86 375.65 422.15Q376.21 422.7 376.21 423.88Q376.21 425.06 375.65 425.62Q375.36 425.9 375.01 426.03ZM434.88 426.03Q434.55 426.17 434.17 426.17Q433.71 426.17 433.35 425.97Q433.08 425.83 432.86 425.57Q432.37 424.97 432.37 423.88Q432.37 422.79 432.86 422.2Q433.08 421.94 433.35 421.79Q433.71 421.6 434.17 421.6Q434.55 421.6 434.88 421.73Q435.22 421.86 435.51 422.15Q436.08 422.7 436.08 423.88Q436.08 425.06 435.51 425.62Q435.23 425.9 434.88 426.03ZM415.88 425.65Q415.32 426.06 414.19 426.06L412.31 426.06L412.31 422.93L414.19 422.93Q415.32 422.93 415.88 423.35Q416.11 423.52 416.25 423.76Q416.44 424.08 416.44 424.51Q416.44 424.93 416.26 425.24Q416.12 425.48 415.88 425.65Z" fill="#242828" fill-opacity="1.000000" fill-rule="evenodd"/>
		<rect id="矩形 1" x="373.000000" y="344.000000" rx="10.667078" width="48.000000" height="48.000000" fill="#1476FF" fill-opacity="1.000000"/>
		<rect id="矩形 1" x="373.000000" y="344.000000" rx="10.667078" width="48.000000" height="48.000000" fill="url(#paint_linear_138_20887_0)" fill-opacity="0"/>
		<path id="Fill 1备份 2" d="M383.52 352C382.13 352 381 353.13 381 354.53L381 373.3C381 374.52 381.82 375.95 382.88 376.56L395.11 383.54C395.63 383.83 396.3 384 397 384C397.69 384 398.36 383.83 398.88 383.54L411.11 376.56C412.17 375.95 413 374.52 413 373.3L413 354.53C413 353.13 411.86 352 410.47 352L383.52 352Z" fill="#FFFFFF" fill-opacity="1.000000" fill-rule="evenodd"/>
		<rect id="矩形" x="386.611328" y="358.000000" rx="1.333333" width="20.777779" height="14.666667" fill="#1476FF" fill-opacity="1.000000"/>
		<rect id="矩形" x="386.611328" y="358.000000" rx="1.333333" width="20.777779" height="14.666667" fill="url(#paint_linear_138_20889_0)" fill-opacity="0"/>
		<rect id="矩形" x="386.945312" y="358.333313" rx="1.333333" width="20.111113" height="14.000000" stroke="#979797" stroke-opacity="0" stroke-width="0.666667"/>
		<path id="直线 8备份 8" d="M393.35 362.81L393.33 362.83C393.05 362.83 392.83 362.61 392.83 362.33C392.83 362.05 393.05 361.83 393.33 361.83L393.35 361.85L393.35 362.81ZM400.64 361.85L400.66 361.83C400.94 361.83 401.16 362.05 401.16 362.33C401.16 362.61 400.94 362.83 400.66 362.83L400.64 362.81L400.64 361.85Z" fill="#D8D8D8" fill-opacity="0" fill-rule="nonzero"/>
		<path id="直线 8备份 8" d="M393.33 362.33L400.66 362.33" stroke="#FFFFFF" stroke-opacity="1.000000" stroke-width="1.000000" stroke-linejoin="round" stroke-linecap="round"/>
		<path id="代码托管 CodeArts Repo" d="M183.91 401.82Q184.45 401.26 184.85 400.73L185.62 400.73Q186.15 401.59 186.31 401.93L187.07 401.53Q186.97 401.36 186.58 400.73L188.27 400.73L188.27 399.9L185.42 399.9Q185.6 399.61 185.91 399.03L184.98 398.82Q184.62 399.48 184.18 400.07Q183.7 400.72 183.13 401.29L183.91 401.82ZM193.7 400.73L193.7 399.9L190.14 399.9L190.56 399L189.6 398.83Q189.31 399.49 189.05 399.97Q188.79 400.45 188.41 400.99L189.29 401.39Q189.44 401.16 189.71 400.73L190.51 400.73Q190.74 401.05 191.26 401.94L192.01 401.52Q191.95 401.44 191.89 401.33Q191.82 401.23 191.75 401.12L191.5 400.73L193.7 400.73ZM173.69 401.14L173.69 398.91L172.74 398.91L172.74 401.14L171.12 401.14L171.12 402.08L172.74 402.08L172.74 404.27Q172.03 404.5 170.79 404.87L171.02 405.79L172.74 405.23L172.74 408.08Q172.74 408.49 172.6 408.66Q172.45 408.83 172.09 408.83Q171.65 408.83 171.13 408.73L171.31 409.69Q171.76 409.75 172.39 409.75Q173.12 409.75 173.4 409.46Q173.69 409.16 173.69 408.41L173.69 404.93Q174.41 404.67 174.72 404.55L174.61 403.64Q174.23 403.79 173.69 403.97L173.69 402.08L174.88 402.08L174.88 401.14L173.69 401.14ZM156.8 406.29Q156.67 407.04 156.48 407.72Q156.34 408.27 156.19 408.46Q156.1 408.56 156 408.61Q155.92 408.64 155.83 408.64Q155.73 408.64 155.63 408.61Q155.51 408.58 155.41 408.51Q155.22 408.38 154.96 408.02Q154.57 407.46 154.23 406.32Q153.89 405.18 153.68 403.53L157.69 403.17L157.61 402.23L153.58 402.61Q153.5 401.83 153.48 401.33L153.38 398.94L152.4 398.94L152.52 401.29Q152.55 402.02 152.63 402.7L150.07 402.94L150.15 403.86L152.72 403.63Q153.14 407.14 154.15 408.61Q154.6 409.24 154.99 409.5Q155.27 409.68 155.56 409.74Q155.7 409.76 155.83 409.76Q156.06 409.76 156.25 409.69Q156.48 409.61 156.67 409.44Q157.03 409.12 157.25 408.36Q157.48 407.63 157.63 406.68L156.8 406.29ZM149.51 402.08Q150.17 400.76 150.66 399.29L149.72 398.99Q149.22 400.55 148.44 402.07Q147.66 403.6 146.82 404.62L147.27 405.64Q147.98 404.74 148.56 403.8L148.56 409.84L149.51 409.84L149.51 402.08ZM155.27 400.73Q155.84 401.24 156.17 401.58L156.77 400.87Q156.48 400.6 155.9 400.1Q155.32 399.61 154.86 399.25L154.31 399.9Q154.7 400.21 155.27 400.73ZM180.7 406.92Q180.68 407.35 180.66 407.7Q180.64 408.1 180.56 408.3Q180.5 408.46 180.38 408.55Q180.35 408.57 180.32 408.59Q180.15 408.68 179.83 408.72Q179.42 408.74 179.23 408.74Q179.03 408.74 178.62 408.72Q178.33 408.7 178.2 408.54Q178.19 408.53 178.17 408.51Q178.05 408.31 178.05 407.76L178.05 404.78L181.81 404.34L181.7 403.37L178.05 403.82L178.05 400.96Q180.03 400.52 181.13 400.2L180.92 399.27Q179.89 399.59 178.17 399.97Q176.45 400.34 175.37 400.49L175.51 401.42Q176.02 401.35 177.07 401.16L177.07 403.94L175.02 404.2L175.13 405.13L177.07 404.9L177.07 407.94Q177.07 408.58 177.21 408.94Q177.3 409.18 177.47 409.33Q177.56 409.41 177.66 409.46Q177.97 409.63 178.51 409.67Q178.76 409.69 179.27 409.69Q179.76 409.69 180.01 409.67Q180.79 409.61 181.14 409.29Q181.49 408.98 181.55 408.18Q181.57 407.83 181.6 407.32Q181.63 406.8 181.64 406.4L180.72 406.19Q180.72 406.49 180.7 406.92ZM169.55 404.05L168.15 404.05L168.58 399.58L163.81 399.58L163.81 400.49L167.53 400.49L167.2 404.05L165 404.05L165.27 401.09L164.35 401.03L163.98 404.98L168.56 404.98Q168.5 406.53 168.3 407.84Q168.2 408.47 168 408.68Q167.79 408.9 167.28 408.9Q166.72 408.9 165.59 408.78L165.74 409.69Q166.76 409.79 167.63 409.79Q168.19 409.79 168.5 409.62Q168.56 409.59 168.61 409.55Q168.85 409.38 168.97 409.07Q169.13 408.68 169.22 407.96Q169.48 406 169.55 404.05ZM159.08 399.77L159.08 400.7L160.46 400.7Q160.21 401.89 159.74 403.1Q159.27 404.32 158.74 405.2L159.12 406.26Q159.62 405.46 159.95 404.79L159.95 409.2L162.88 409.2L162.88 403.21L160.64 403.21Q161.06 402.12 161.41 400.7L163.24 400.7L163.24 399.77L159.08 399.77ZM189.14 402.2Q188.93 401.77 188.64 401.34L187.8 401.59Q187.98 401.86 188.16 402.2L183.35 402.2L183.35 404.11L184.32 404.11L184.32 402.98L192.42 402.98L192.42 404.11L193.4 404.11L193.4 402.2L189.14 402.2ZM185.7 406.15L191.93 406.15L191.93 403.82L184.72 403.82L184.72 409.93L185.7 409.93L185.7 409.44L191.22 409.44L191.22 409.91L192.2 409.91L192.2 406.99L185.7 406.99L185.7 406.15ZM160.81 404.11L162.02 404.11L162.02 408.29L160.81 408.29L160.81 404.11ZM190.96 404.58L190.96 405.39L185.7 405.39L185.7 404.58L190.96 404.58ZM167.76 406.4L163.41 406.4L163.41 407.28L167.76 407.28L167.76 406.4ZM191.22 407.74L191.22 408.68L185.7 408.68L185.7 407.74L191.22 407.74ZM151.9 417.86L150.88 417.86L150.88 421.73Q150.62 421.31 150.25 421.05Q150.12 420.97 149.99 420.9Q149.7 420.75 149.4 420.68Q149.13 420.62 148.85 420.62Q148.57 420.62 148.3 420.68Q147.89 420.78 147.5 421.01Q147.44 421.05 147.37 421.1Q146.83 421.48 146.49 422.14Q146.11 422.88 146.11 423.88Q146.11 424.88 146.49 425.62Q146.84 426.28 147.38 426.66Q147.44 426.7 147.5 426.74Q147.88 426.97 148.28 427.06Q148.56 427.13 148.85 427.13Q149.14 427.13 149.42 427.06Q149.74 426.99 150.03 426.83Q150.17 426.76 150.3 426.67Q150.68 426.39 150.93 425.94Q150.98 426.37 151 427L151.9 427L151.9 417.86ZM136.39 425.85Q135.88 426.14 135.21 426.14Q134.63 426.14 134.14 425.93Q133.92 425.84 133.72 425.7Q133.64 425.64 133.56 425.58Q133.03 425.15 132.72 424.45Q132.37 423.64 132.37 422.59Q132.37 421.55 132.72 420.74Q133.02 420.06 133.54 419.63Q133.63 419.56 133.72 419.5Q133.92 419.35 134.15 419.26Q134.64 419.05 135.21 419.05Q135.88 419.05 136.39 419.34Q136.96 419.67 137.32 420.38L138.18 419.88Q137.98 419.41 137.65 419.06Q137.38 418.76 137.03 418.55Q136.92 418.48 136.79 418.41Q136.1 418.07 135.23 418.07Q134.55 418.07 133.94 418.28Q133.56 418.42 133.2 418.64Q132.99 418.78 132.79 418.94Q132.17 419.46 131.77 420.24Q131.24 421.27 131.24 422.59Q131.24 423.91 131.77 424.94Q132.16 425.72 132.78 426.24Q132.98 426.41 133.2 426.55Q133.56 426.78 133.95 426.91Q134.55 427.13 135.23 427.13Q136.1 427.13 136.79 426.78Q136.92 426.72 137.03 426.65Q137.39 426.42 137.67 426.12Q137.98 425.77 138.18 425.32L137.32 424.81Q136.96 425.52 136.39 425.85ZM167.27 427L163.75 418.21L162.85 418.21L159.47 427L160.55 427L161.48 424.48L165.11 424.48L166.09 427L167.27 427ZM191.26 427L192.57 427L189.85 423.22Q190.58 422.98 191.04 422.49Q191.13 422.41 191.2 422.31Q191.37 422.1 191.47 421.87Q191.69 421.39 191.69 420.82Q191.69 420.25 191.48 419.77Q191.4 419.61 191.3 419.45Q191.21 419.32 191.11 419.19Q190.75 418.79 190.21 418.54Q189.51 418.21 188.61 418.21L185.91 418.21L185.91 427L186.98 427L186.98 423.39L188.72 423.39L191.26 427ZM174.8 427.13Q175.57 427.13 176.06 426.79L175.72 425.95Q175.55 426.05 175.37 426.1Q175.15 426.17 174.92 426.17Q174.63 426.17 174.42 426.04Q174.31 425.98 174.22 425.89Q173.95 425.6 173.95 424.86L173.95 421.64L175.75 421.64L175.75 420.76L173.95 420.76L173.95 419.01L172.93 419.01L172.93 420.76L171.92 420.76L171.92 421.64L172.93 421.64L172.93 424.98Q172.93 426.2 173.53 426.73Q173.99 427.13 174.8 427.13ZM186.98 422.46L186.98 419.15L188.48 419.15Q189.5 419.15 190.03 419.61Q190.26 419.81 190.39 420.06Q190.57 420.39 190.57 420.82Q190.57 421.25 190.38 421.59Q190.25 421.82 190.03 422.01Q189.5 422.46 188.48 422.46L186.98 422.46ZM163.25 419.64L164.74 423.51L161.84 423.51L163.25 419.64ZM139.32 422.41Q139.01 423.07 139.01 423.88Q139.01 424.78 139.38 425.49Q139.4 425.53 139.42 425.56Q139.69 426.05 140.09 426.4Q140.29 426.57 140.52 426.71Q140.91 426.95 141.33 427.05Q141.66 427.13 142 427.13Q142.38 427.13 142.74 427.03Q143.12 426.93 143.48 426.71Q143.7 426.58 143.89 426.41Q144.29 426.06 144.57 425.56Q144.59 425.53 144.61 425.49Q144.98 424.78 144.98 423.88Q144.98 422.98 144.61 422.27Q144.59 422.23 144.57 422.18Q144.28 421.65 143.84 421.29Q143.67 421.15 143.48 421.03Q143.13 420.82 142.75 420.72Q142.39 420.62 142 420.62Q141.64 420.62 141.31 420.71Q140.9 420.81 140.52 421.04Q140.35 421.15 140.19 421.28Q139.73 421.65 139.43 422.2Q139.37 422.3 139.32 422.41ZM157.61 420.92Q157.06 420.62 156.34 420.62Q155.83 420.62 155.38 420.78Q155.11 420.87 154.86 421.01Q154.7 421.1 154.56 421.21Q154.1 421.57 153.79 422.12Q153.39 422.86 153.39 423.85Q153.39 424.88 153.79 425.62Q154.07 426.14 154.5 426.49Q154.68 426.63 154.88 426.74Q155.06 426.84 155.25 426.92Q155.79 427.13 156.41 427.13Q157.08 427.13 157.65 426.88Q157.76 426.84 157.87 426.78Q158.31 426.54 158.57 426.18Q158.69 426 158.77 425.79L157.98 425.35Q157.79 425.7 157.49 425.91Q157.08 426.19 156.47 426.19Q155.9 426.19 155.46 425.95Q155.25 425.84 155.08 425.67Q154.53 425.15 154.47 424.08L158.96 424.08Q159 423.8 159 423.47Q159 422.74 158.73 422.14Q158.71 422.08 158.68 422.03Q158.5 421.68 158.25 421.41Q158.03 421.17 157.75 421Q157.68 420.96 157.61 420.92ZM170.15 420.75Q169.58 421 169.24 421.75Q169.19 421.22 169.18 420.77L168.28 420.77L168.28 427L169.3 427L169.3 423.82Q169.3 422.72 169.71 422.16Q169.92 421.85 170.22 421.71Q170.48 421.58 170.8 421.58Q171.19 421.58 171.43 421.75L171.43 420.76Q171.14 420.62 170.78 420.62Q170.43 420.62 170.15 420.75ZM181.15 425.94Q181.29 425.61 181.29 425.22Q181.29 424.65 181.02 424.3Q181 424.28 180.99 424.27Q180.79 424.02 180.52 423.85Q180.41 423.79 180.29 423.74Q179.89 423.56 179.22 423.38Q178.72 423.24 178.44 423.13Q178.17 423.02 177.98 422.84Q177.92 422.78 177.88 422.71Q177.8 422.57 177.8 422.38Q177.8 422.16 177.89 422Q177.97 421.87 178.11 421.77Q178.43 421.56 178.96 421.56Q179.48 421.56 179.85 421.78Q180.02 421.88 180.15 422.01Q180.32 422.18 180.43 422.41L181.2 421.97Q181.12 421.72 180.99 421.52Q180.77 421.2 180.41 420.98Q179.82 420.62 179.01 420.62Q178.39 420.62 177.86 420.85Q177.44 421.03 177.16 421.34Q177.09 421.41 177.04 421.49Q176.95 421.6 176.89 421.73Q176.73 422.06 176.73 422.47Q176.73 422.98 176.97 423.3Q176.99 423.32 177.01 423.34Q177.14 423.5 177.3 423.62Q177.47 423.75 177.68 423.84Q178.07 424.01 178.71 424.19Q179.24 424.34 179.53 424.46Q179.82 424.57 180.02 424.78Q180.08 424.84 180.12 424.9Q180.22 425.07 180.22 425.3Q180.22 425.52 180.13 425.69Q180.04 425.85 179.88 425.96Q179.55 426.2 178.96 426.2Q178.29 426.2 177.86 425.89Q177.51 425.63 177.31 425.16L176.53 425.6Q176.61 425.89 176.77 426.13Q177 426.48 177.39 426.72Q178.05 427.13 178.96 427.13Q179.65 427.13 180.17 426.89Q180.62 426.68 180.9 426.34Q180.95 426.28 180.99 426.22Q181.08 426.08 181.15 425.94ZM197.2 420.92Q196.64 420.62 195.93 420.62Q195.42 420.62 194.97 420.78Q194.7 420.87 194.45 421.01Q194.29 421.1 194.14 421.21Q193.68 421.57 193.38 422.12Q192.98 422.86 192.98 423.85Q192.98 424.88 193.38 425.62Q193.66 426.14 194.09 426.49Q194.27 426.63 194.47 426.74Q194.65 426.84 194.84 426.92Q195.38 427.13 196 427.13Q196.67 427.13 197.24 426.88Q197.35 426.84 197.46 426.78Q197.9 426.54 198.16 426.18Q198.28 426 198.35 425.79L197.57 425.35Q197.38 425.7 197.08 425.91Q196.67 426.19 196.06 426.19Q195.49 426.19 195.05 425.95Q194.84 425.84 194.67 425.67Q194.12 425.15 194.06 424.08L198.55 424.08Q198.59 423.8 198.59 423.47Q198.59 422.74 198.32 422.14Q198.29 422.08 198.27 422.03Q198.09 421.68 197.84 421.41Q197.62 421.17 197.34 421Q197.27 420.96 197.2 420.92ZM203.45 420.67Q203.21 420.62 202.96 420.62Q202.64 420.62 202.35 420.7Q202.05 420.77 201.77 420.93Q201.64 420.99 201.52 421.08Q201.13 421.36 200.87 421.82Q200.83 421.37 200.8 420.77L199.9 420.77L199.9 429.78L200.92 429.78L200.92 426.01Q201.17 426.41 201.52 426.67Q201.66 426.77 201.81 426.85Q202.15 427.02 202.51 427.09Q202.73 427.13 202.96 427.13Q203.22 427.13 203.47 427.08Q203.9 426.99 204.3 426.74Q204.36 426.7 204.43 426.66Q204.97 426.28 205.31 425.62Q205.7 424.88 205.7 423.88Q205.7 422.88 205.31 422.14Q204.97 421.48 204.43 421.1Q204.37 421.05 204.3 421.01Q203.89 420.76 203.45 420.67ZM207.13 422.41Q206.83 423.07 206.83 423.88Q206.83 424.78 207.2 425.49Q207.21 425.53 207.23 425.56Q207.5 426.05 207.9 426.4Q208.1 426.57 208.33 426.71Q208.72 426.95 209.14 427.05Q209.47 427.13 209.81 427.13Q210.2 427.13 210.55 427.03Q210.94 426.93 211.29 426.71Q211.51 426.58 211.7 426.41Q212.11 426.06 212.38 425.56Q212.4 425.53 212.42 425.49Q212.79 424.78 212.79 423.88Q212.79 422.98 212.43 422.27Q212.4 422.23 212.38 422.18Q212.09 421.65 211.65 421.29Q211.48 421.15 211.29 421.03Q210.94 420.82 210.56 420.72Q210.2 420.62 209.81 420.62Q209.45 420.62 209.12 420.71Q208.71 420.81 208.34 421.04Q208.16 421.15 208 421.28Q207.55 421.65 207.24 422.2Q207.18 422.3 207.13 422.41ZM155.62 421.69Q155.94 421.56 156.31 421.56Q156.78 421.56 157.13 421.77Q157.29 421.87 157.43 422.01Q157.45 422.02 157.47 422.04Q157.87 422.48 157.9 423.25L154.5 423.25Q154.63 422.45 155.1 422.02Q155.12 422.01 155.13 421.99Q155.36 421.8 155.62 421.69ZM195.21 421.69Q195.53 421.56 195.89 421.56Q196.37 421.56 196.72 421.77Q196.88 421.87 197.02 422.01Q197.04 422.02 197.05 422.04Q197.45 422.48 197.49 423.25L194.09 423.25Q194.22 422.45 194.69 422.02Q194.7 422.01 194.72 421.99Q194.95 421.8 195.21 421.69ZM140.35 425.1Q140.09 424.58 140.09 423.88Q140.09 423.17 140.35 422.65Q140.57 422.2 140.93 421.93Q140.98 421.89 141.03 421.86Q141.18 421.76 141.34 421.7Q141.65 421.58 142 421.58Q142.37 421.58 142.69 421.71Q142.84 421.77 142.97 421.86Q143.04 421.9 143.11 421.96Q143.45 422.22 143.65 422.65Q143.9 423.17 143.9 423.88Q143.9 424.58 143.65 425.1Q143.45 425.53 143.11 425.79Q143.04 425.85 142.97 425.89Q142.84 425.98 142.69 426.04Q142.37 426.17 142 426.17Q141.65 426.17 141.34 426.05Q141.18 425.99 141.03 425.89Q140.98 425.86 140.93 425.82Q140.57 425.55 140.35 425.1ZM203.65 425.97Q203.29 426.17 202.83 426.17Q202.57 426.17 202.32 426.1Q202.11 426.05 201.9 425.94Q201.9 425.94 201.89 425.94Q201.47 425.71 201.2 425.2Q200.92 424.68 200.92 423.88Q200.92 423.07 201.2 422.56Q201.47 422.04 201.9 421.82L201.9 421.81Q202.11 421.7 202.34 421.65Q202.57 421.58 202.83 421.58Q203.29 421.58 203.65 421.78Q203.92 421.92 204.14 422.18Q204.63 422.78 204.63 423.88Q204.63 424.97 204.14 425.57Q203.92 425.83 203.65 425.97ZM208.16 425.1Q207.91 424.58 207.91 423.88Q207.91 423.17 208.16 422.65Q208.38 422.2 208.74 421.93Q208.79 421.89 208.84 421.86Q208.99 421.76 209.15 421.7Q209.46 421.58 209.81 421.58Q210.18 421.58 210.5 421.71Q210.65 421.77 210.78 421.86Q210.86 421.9 210.92 421.96Q211.26 422.22 211.46 422.65Q211.71 423.17 211.71 423.88Q211.71 424.58 211.46 425.1Q211.26 425.53 210.92 425.79Q210.86 425.85 210.78 425.89Q210.65 425.98 210.5 426.04Q210.18 426.17 209.81 426.17Q209.46 426.17 209.15 426.05Q208.99 425.99 208.84 425.89Q208.79 425.86 208.74 425.82Q208.38 425.55 208.16 425.1ZM149.68 426.03Q149.35 426.17 148.97 426.17Q148.51 426.17 148.15 425.97Q147.88 425.83 147.67 425.57Q147.17 424.97 147.17 423.88Q147.17 422.79 147.67 422.2Q147.88 421.94 148.15 421.79Q148.51 421.6 148.97 421.6Q149.35 421.6 149.68 421.73Q150.03 421.86 150.32 422.15Q150.88 422.7 150.88 423.88Q150.88 425.06 150.32 425.62Q150.03 425.9 149.68 426.03Z" fill="#242828" fill-opacity="1.000000" fill-rule="evenodd"/>
		<rect id="开发与运维_x2F_CodeArts_Repo" x="136.000000" y="344.000122" width="48.000000" height="48.000000" fill="#FFFFFF" fill-opacity="0"/>
		<path id="矩形备份_19" d="M156.86 344L187.13 344C192.03 344 196 347.96 196 352.86L196 383.13C196 388.03 192.03 392 187.13 392L156.86 392C151.96 392 148 388.03 148 383.13L148 352.86C148 347.96 151.96 344 156.86 344Z" fill="#00C4BE" fill-opacity="1.000000" fill-rule="nonzero"/>
		<path id="path" d="M157.71 355.43C157.07 355.45 156.48 355.66 155.99 356L155.99 354.53C155.99 353.13 157.13 352 158.52 352L185.47 352C186.86 352 187.99 353.13 187.99 354.53L187.99 356C187.48 355.64 186.85 355.43 186.18 355.43L157.8 355.43L157.71 355.43ZM188 357.41L188 373.3C188 374.52 187.17 375.95 186.11 376.55L173.88 383.54C173.36 383.84 172.69 383.99 172 383.99C171.3 383.99 170.63 383.83 170.12 383.54L157.88 376.56C156.82 375.95 156 374.52 156 373.3L156 357.41C156.38 356.82 157.05 356.43 157.81 356.43L186.19 356.43L186.27 356.43C186.99 356.46 187.63 356.84 188 357.41ZM181.33 363.34C177.94 362.7 174.74 360.97 173.28 359.6C173 359.42 172.63 359.33 172.45 359.33C172.27 359.33 171.81 359.33 171.54 359.6C169.98 360.97 166.87 362.61 163.49 363.34C162.89 363.5 162.66 364.34 162.66 364.8C162.66 365.16 162.7 365.51 162.75 365.98C163.03 368.35 163.3 371.82 165.68 375.01C167.24 377.2 169.8 379.38 171.9 380.57C172.02 380.63 172.17 380.69 172.45 380.69C172.73 380.69 172.8 380.61 172.91 380.57C175.11 379.38 177.58 377.2 179.13 375.01C181.24 372.09 181.75 368.35 181.93 365.98C181.96 365.58 181.98 365.16 182 364.78C182 364.49 182.09 363.53 181.33 363.34ZM177.49 370.99C177.49 370.72 177.27 370.5 177 370.5L167.66 370.5C167.38 370.5 167.16 370.72 167.16 370.99C167.16 371.27 167.39 371.49 167.66 371.49L177 371.49C177.27 371.49 177.49 371.27 177.49 370.99ZM172.83 370.99L172.83 365.66C172.83 365.39 172.6 365.16 172.33 365.16C172.05 365.16 171.83 365.39 171.83 365.66L171.83 370.99C171.83 371.27 172.06 371.49 172.33 371.49C172.6 371.49 172.83 371.27 172.83 370.99Z" fill="#FFFFFF" fill-opacity="1.000000" fill-rule="nonzero"/>
		<path id="开源镜像站Mirrors" d="M401.44 127.58L401.44 126.84L399.4 126.84L399.69 125.62L401.08 125.62L401.08 124.89L398.37 124.89Q398.1 124.14 397.91 123.77L396.98 124Q397.2 124.42 397.36 124.89L394.51 124.89L394.51 125.62L395.78 125.62L396.03 126.84L394.17 126.84L394.17 127.58L401.44 127.58ZM412.28 132.34Q411.77 131.69 411.37 130.78Q412.14 130.31 412.74 129.81L412.22 129.17Q411.79 129.57 411.18 129.96Q410.58 130.36 410 130.65Q409.69 130.02 409.12 129.32Q409.23 129.2 409.4 128.93L412.82 128.93L412.82 126.47L410.54 126.47Q411.09 125.98 411.48 125.4L411.48 124.7L408.57 124.7Q408.8 124.37 408.97 124.07L408.08 123.78Q407.14 125.49 405.08 126.83L405.5 127.59L406.12 127.14L406.12 128.93L408.4 128.93Q407.98 129.35 407.27 129.66Q406.57 129.96 405.41 130.26L405.75 131.01Q406.74 130.71 407.39 130.44Q408.05 130.18 408.53 129.84L408.82 130.23Q407.49 131.4 405.4 132.02L405.72 132.72Q406.77 132.36 407.59 131.92Q408.41 131.46 409.17 130.82Q409.34 131.13 409.42 131.36Q407.97 132.76 405.33 133.72L405.74 134.46Q406.96 133.94 407.92 133.37Q408.87 132.81 409.62 132.11Q409.65 132.32 409.67 132.74Q409.7 133.26 409.62 133.53Q409.55 133.77 409.39 133.85Q409.38 133.86 409.36 133.87Q409.18 133.95 408.85 133.95Q408.62 133.95 408.32 133.91Q408.02 133.88 407.91 133.86L408.05 134.67Q408.75 134.74 408.97 134.74Q409.72 134.74 410.13 134.39Q410.54 134.04 410.54 133.12Q410.54 132.16 410.29 131.37L410.73 131.14Q411.16 132.18 411.68 132.91Q412.2 133.64 412.95 134.26L413.56 133.56Q412.78 132.99 412.28 132.34ZM392.66 134.15Q393.44 133.6 394.16 133.14L393.97 132.27L392.82 133.08L392.82 130.74L394.09 130.74L394.09 129.88L392.82 129.88L392.82 128.43L393.93 128.43L393.93 127.55L391.17 127.55Q391.51 127.05 391.91 126.24L394.15 126.24L394.15 125.37L392.31 125.37Q392.55 124.82 392.8 124.01L391.98 123.81Q391.34 125.86 390.32 127.34L390.85 128.02Q391.03 127.79 391.16 127.56L391.16 128.43L391.94 128.43L391.94 129.88L390.57 129.88L390.57 130.74L391.94 130.74L391.94 133.19Q391.94 133.41 391.86 133.56Q391.78 133.71 391.59 133.86L392.07 134.6L392.66 134.15ZM417.74 125.89Q417.38 124.78 417.01 123.83L416.07 124.07Q416.43 124.92 416.79 125.89L414.64 125.89L414.64 126.82L419.47 126.82L419.47 125.89L417.74 125.89ZM404.71 127.08Q405.29 125.69 405.7 124.19L404.77 123.96Q404.36 125.46 403.73 126.92Q403.1 128.38 402.44 129.33L402.97 130.24Q403.38 129.69 403.81 128.92L403.81 134.91L404.71 134.91L404.71 127.08ZM425.39 126.86L425.39 125.93L422.39 125.93L422.39 123.96L421.41 123.96L421.41 129.2L419.56 129.2L419.56 134.84L420.52 134.84L420.52 134.14L423.73 134.14L423.73 134.85L424.67 134.85L424.67 129.2L422.39 129.2L422.39 126.86L425.39 126.86ZM380.05 125.77Q380.66 126.29 380.97 126.59L381.53 125.81L379.51 124.18L378.97 124.9Q379.44 125.26 380.05 125.77ZM386.68 130.92L388.66 130.92L388.66 126.54L386.42 126.54Q386.54 126.12 386.72 125.45L389.46 125.45L389.46 124.55L382.05 124.55L382.05 128.53Q382.05 129.93 381.94 130.88Q381.82 131.84 381.54 132.67Q381.26 133.49 380.73 134.48L381.61 134.87Q382.14 133.88 382.42 132.99Q382.71 132.11 382.83 131.06Q382.95 130.01 382.95 128.5L382.95 125.45L385.77 125.45Q385.58 126.24 385.48 126.54L383.76 126.54L383.76 130.92L385.79 130.92L385.79 133.03Q385.79 133.52 385.69 133.71Q385.66 133.76 385.63 133.79Q385.51 133.91 385.28 133.91Q385.02 133.91 384.34 133.82L384.52 134.69Q384.88 134.74 385.25 134.76Q385.41 134.76 385.58 134.76Q386.18 134.76 386.43 134.47Q386.43 134.46 386.44 134.46Q386.68 134.15 386.68 133.39L386.68 130.92ZM377.3 129.95L377.3 129L374.74 129L374.74 125.64L376.77 125.64L376.77 124.71L367.16 124.71L367.16 125.64L369.38 125.64L369.38 129L366.65 129L366.65 129.95L369.33 129.95Q369.26 130.89 369.02 131.56Q368.78 132.22 368.28 132.81Q367.78 133.41 366.87 134.15L367.65 134.88Q368.62 134.03 369.16 133.34Q369.7 132.65 369.97 131.87L369.97 131.87Q370.23 131.08 370.32 129.95L373.76 129.95L373.76 134.77L374.74 134.77L374.74 129.95L377.3 129.95ZM406.96 126.47Q407.59 125.93 408.01 125.44L410.41 125.44Q410.05 125.98 409.48 126.47L406.96 126.47ZM396.89 126.84L396.61 125.62L398.83 125.62Q398.66 126.44 398.56 126.84L396.89 126.84ZM373.76 129L370.36 129L370.36 125.64L373.76 125.64L373.76 129ZM379.55 128.42Q380.19 128.94 380.59 129.32L381.17 128.55L380.56 128.05Q379.35 127.08 379.02 126.83L378.49 127.56Q378.92 127.89 379.55 128.42ZM408.88 128.24L406.98 128.24L406.98 127.17L409.14 127.17Q409.08 127.79 408.88 128.24ZM411.96 127.17L411.96 128.24L409.71 128.24Q409.86 127.82 409.91 127.17L411.96 127.17ZM419.06 132.12Q418.91 132.17 418.3 132.34L417.81 132.48Q418.11 131.31 418.46 129.83Q418.81 128.36 418.96 127.53L418.09 127.32Q417.92 128.31 417.54 129.99Q417.16 131.67 416.86 132.76L414.45 133.44L414.65 134.33L419.22 133.01L419.06 132.12ZM387.77 127.35L387.77 128.36L384.64 128.36L384.64 127.35L387.77 127.35ZM416.38 129.48Q416.1 128.19 415.86 127.36L415 127.59Q415.23 128.37 415.52 129.68Q415.81 131 415.91 131.79L416.8 131.61Q416.67 130.77 416.38 129.48ZM401.46 133.55Q401.5 132.86 401.5 132.48L400.72 132.32L400.69 133.29Q400.67 133.59 400.57 133.7Q400.47 133.82 400.2 133.85Q400.09 133.86 399.86 133.86Q399.64 133.86 399.52 133.85Q399.2 133.82 399.1 133.71Q399.01 133.61 399.01 133.27L399.01 131.98L400.55 131.98L400.55 128.37L394.79 128.37L394.79 131.98L396.05 131.98Q396.04 132.02 396.04 132.06Q396.01 132.59 395.8 132.95Q395.6 133.31 395.1 133.62Q394.6 133.92 393.67 134.2L394.09 134.99Q395.11 134.65 395.72 134.26Q396.33 133.86 396.63 133.34Q396.92 132.81 396.97 132.05L396.97 131.98L398.18 131.98L398.18 133.58Q398.18 134.16 398.38 134.38Q398.58 134.6 399.15 134.63Q399.58 134.65 399.77 134.65Q399.99 134.65 400.4 134.63Q400.81 134.61 401.02 134.52Q401.1 134.48 401.17 134.42Q401.27 134.33 401.32 134.2Q401.42 133.98 401.46 133.55ZM399.67 129.11L399.67 129.82L395.65 129.82L395.65 129.11L399.67 129.11ZM384.64 129.14L387.77 129.14L387.77 130.14L384.64 130.14L384.64 129.14ZM379.76 134.75L380.92 130.3L380.02 130.08Q379.96 130.47 379.5 132.21Q379.04 133.96 378.88 134.5L379.76 134.75ZM423.73 133.23L420.52 133.23L420.52 130.13L423.73 130.13L423.73 133.23ZM395.65 130.52L399.67 130.52L399.67 131.24L395.65 131.24L395.65 130.52ZM389.5 134.09Q388.67 132.23 388.23 131.39L387.48 131.7Q387.74 132.21 388.12 133.07Q388.51 133.92 388.7 134.44L389.5 134.09ZM384.07 133.21Q384.48 132.45 384.74 131.79L383.97 131.48Q383.49 132.76 382.54 134.14L383.26 134.57Q383.67 133.97 384.07 133.21ZM385.89 143.21L385.02 143.21L381.79 148.43L378.55 143.21L377.61 143.21L377.61 152L378.64 152L378.64 145.27L381.44 149.73L382.08 149.73L384.85 145.3L384.85 152L385.89 152L385.89 143.21ZM388.15 144.61Q388.25 144.65 388.38 144.65Q388.49 144.65 388.59 144.61Q388.74 144.56 388.85 144.44Q388.98 144.31 389.03 144.16Q389.06 144.06 389.06 143.96Q389.06 143.8 389 143.67Q388.95 143.56 388.86 143.46Q388.77 143.37 388.65 143.31Q388.53 143.26 388.38 143.26Q388.26 143.26 388.15 143.3Q388.01 143.35 387.9 143.47Q387.79 143.58 387.74 143.72Q387.7 143.83 387.7 143.96Q387.7 144.07 387.74 144.17Q387.78 144.32 387.9 144.44Q388.01 144.56 388.15 144.61ZM393.9 145.7Q393.66 145.62 393.37 145.62Q392.93 145.62 392.59 145.8Q392.05 146.07 391.72 146.79Q391.68 146.37 391.65 145.77L390.75 145.77L390.75 152L391.77 152L391.77 148.82Q391.77 147.72 392.22 147.16Q392.46 146.84 392.79 146.7Q393.05 146.58 393.35 146.58Q393.69 146.58 393.93 146.73L394.3 145.9Q394.15 145.78 393.9 145.7ZM398.39 145.7Q398.14 145.62 397.85 145.62Q397.42 145.62 397.08 145.8Q396.53 146.07 396.21 146.79Q396.16 146.37 396.14 145.77L395.24 145.77L395.24 152L396.26 152L396.26 148.82Q396.26 147.72 396.7 147.16Q396.95 146.84 397.27 146.7Q397.53 146.58 397.84 146.58Q398.18 146.58 398.42 146.73L398.79 145.9Q398.64 145.78 398.39 145.7ZM399.29 147.41Q398.98 148.07 398.98 148.88Q398.98 149.78 399.35 150.49Q399.37 150.53 399.39 150.56Q399.66 151.05 400.06 151.4Q400.26 151.57 400.49 151.71Q400.88 151.95 401.3 152.05Q401.63 152.13 401.97 152.13Q402.35 152.13 402.71 152.03Q403.09 151.93 403.45 151.71Q403.67 151.58 403.86 151.41Q404.26 151.06 404.54 150.56Q404.56 150.53 404.58 150.49Q404.95 149.78 404.95 148.88Q404.95 147.98 404.58 147.27Q404.56 147.23 404.54 147.18Q404.25 146.65 403.81 146.29Q403.64 146.15 403.45 146.03Q403.1 145.82 402.72 145.72Q402.36 145.62 401.97 145.62Q401.61 145.62 401.28 145.71Q400.87 145.81 400.49 146.04Q400.32 146.15 400.16 146.28Q399.7 146.64 399.4 147.2Q399.34 147.3 399.29 147.41ZM409.59 145.7Q409.34 145.62 409.05 145.62Q408.62 145.62 408.28 145.8Q407.73 146.07 407.41 146.79Q407.36 146.37 407.34 145.77L406.43 145.77L406.43 152L407.46 152L407.46 148.82Q407.46 147.72 407.9 147.16Q408.15 146.84 408.47 146.7Q408.73 146.58 409.04 146.58Q409.38 146.58 409.62 146.73L409.99 145.9Q409.83 145.78 409.59 145.7ZM414.94 150.94Q415.09 150.61 415.09 150.22Q415.09 149.65 414.81 149.3Q414.8 149.28 414.79 149.27Q414.58 149.02 414.32 148.86Q414.21 148.79 414.09 148.74Q413.68 148.56 413.02 148.38Q412.52 148.24 412.24 148.13Q411.97 148.02 411.78 147.84Q411.72 147.78 411.68 147.71Q411.6 147.57 411.6 147.38Q411.6 147.16 411.69 147Q411.77 146.87 411.91 146.77Q412.23 146.56 412.76 146.56Q413.27 146.56 413.65 146.78Q413.82 146.88 413.95 147.01Q414.12 147.18 414.22 147.41L415 146.97Q414.92 146.72 414.78 146.52Q414.57 146.2 414.21 145.98Q413.62 145.62 412.81 145.62Q412.18 145.62 411.66 145.85Q411.24 146.03 410.96 146.34Q410.89 146.41 410.83 146.49Q410.75 146.6 410.69 146.73Q410.53 147.06 410.53 147.47Q410.53 147.98 410.77 148.3Q410.79 148.32 410.8 148.34Q410.94 148.5 411.09 148.62Q411.27 148.75 411.48 148.84Q411.87 149.01 412.51 149.19Q413.04 149.34 413.33 149.46Q413.62 149.57 413.82 149.78Q413.88 149.84 413.92 149.9Q414.02 150.07 414.02 150.3Q414.02 150.52 413.93 150.69Q413.84 150.85 413.68 150.96Q413.35 151.2 412.76 151.2Q412.09 151.2 411.66 150.89Q411.3 150.63 411.1 150.16L410.32 150.6Q410.41 150.89 410.57 151.13Q410.8 151.48 411.19 151.72Q411.85 152.13 412.76 152.13Q413.44 152.13 413.97 151.89Q414.42 151.68 414.7 151.34Q414.75 151.28 414.79 151.22Q414.88 151.08 414.94 150.94ZM387.86 152L388.88 152L388.88 145.77L387.86 145.77L387.86 152ZM400.32 150.1Q400.06 149.58 400.06 148.88Q400.06 148.17 400.32 147.65Q400.54 147.2 400.9 146.93Q400.95 146.89 401 146.86Q401.15 146.76 401.31 146.7Q401.62 146.58 401.97 146.58Q402.34 146.58 402.66 146.71Q402.81 146.77 402.94 146.86Q403.01 146.9 403.08 146.96Q403.42 147.22 403.62 147.65Q403.87 148.17 403.87 148.88Q403.87 149.58 403.62 150.1Q403.42 150.53 403.08 150.79Q403.01 150.85 402.94 150.89Q402.81 150.98 402.66 151.04Q402.34 151.17 401.97 151.17Q401.62 151.17 401.31 151.05Q401.15 150.99 401 150.89Q400.95 150.86 400.9 150.82Q400.54 150.55 400.32 150.1Z" fill="#242828" fill-opacity="1.000000" fill-rule="evenodd"/>
		<path id="开源组件/工具" d="M520.52 75.09L520.52 74.18L517.34 74.18L517.34 71.37L520.08 71.37L520.08 70.42L517.34 70.42L517.34 67.87L516.39 67.87L516.39 70.42L514.7 70.42Q514.97 69.39 515.1 68.77L514.24 68.55Q513.99 69.65 513.6 70.83Q513.21 72 512.76 72.98L513.67 73.33Q514.03 72.51 514.41 71.37L516.39 71.37L516.39 74.18L512.75 74.18L512.75 75.09L516.39 75.09L516.39 78.91L517.34 78.91L517.34 75.09L520.52 75.09ZM497.73 72.56Q498.09 72.48 498.4 72.44Q499.27 72.32 499.88 72.25Q499.02 73.57 498.45 74.27Q498.33 74.43 498.2 74.51Q498.06 74.6 497.84 74.67L498.04 75.65Q498.51 75.52 498.83 75.46Q500.19 75.16 501.59 74.96L501.58 73.96L499.47 74.46Q500.05 73.67 500.87 72.4Q501.69 71.12 502.17 70.22L501.34 69.81Q501.09 70.3 500.46 71.34Q499.48 71.48 498.99 71.54Q499.36 70.95 499.85 70.05Q500.34 69.14 500.75 68.3L499.85 67.9Q499.48 68.75 498.92 69.76Q498.36 70.77 497.99 71.3Q497.91 71.42 497.81 71.49Q497.72 71.55 497.52 71.61L497.73 72.56ZM511.96 70.76Q512.46 69.58 512.86 68.18L511.92 67.9Q511.53 69.33 510.81 70.86Q510.1 72.38 509.37 73.4L509.81 74.47Q510.5 73.6 511.05 72.62L511.05 78.87L511.96 78.87L511.96 70.76ZM487.05 69.77Q487.66 70.29 487.97 70.59L488.53 69.81L486.51 68.18L485.97 68.9Q486.44 69.26 487.05 69.77ZM547.37 75.34L547.37 68.47L539.97 68.47L539.97 75.34L538.21 75.34L538.21 76.21L549.11 76.21L549.11 75.34L547.37 75.34ZM507.53 77.51L507.53 68.5L502.52 68.5L502.52 77.51L501.46 77.51L501.46 78.43L508.49 78.43L508.49 77.51L507.53 77.51ZM493.68 74.92L495.66 74.92L495.66 70.54L493.42 70.54Q493.54 70.12 493.72 69.45L496.46 69.45L496.46 68.55L489.05 68.55L489.05 72.53Q489.05 73.93 488.94 74.88Q488.82 75.84 488.54 76.66Q488.26 77.49 487.73 78.48L488.61 78.87Q489.14 77.87 489.42 76.99Q489.71 76.11 489.83 75.06Q489.95 74.01 489.95 72.5L489.95 69.45L492.77 69.45Q492.58 70.24 492.48 70.54L490.76 70.54L490.76 74.92L492.79 74.92L492.79 77.03Q492.79 77.51 492.69 77.71Q492.66 77.76 492.63 77.79Q492.51 77.91 492.28 77.91Q492.02 77.91 491.34 77.82L491.52 78.69Q491.88 78.74 492.25 78.76Q492.41 78.76 492.58 78.76Q493.18 78.76 493.43 78.47Q493.43 78.46 493.44 78.46Q493.68 78.15 493.68 77.39L493.68 74.92ZM484.3 73.95L484.3 73L481.74 73L481.74 69.64L483.77 69.64L483.77 68.71L474.16 68.71L474.16 69.64L476.38 69.64L476.38 73L473.65 73L473.65 73.95L476.33 73.95Q476.26 74.89 476.02 75.55Q475.78 76.22 475.28 76.81Q474.78 77.41 473.87 78.15L474.65 78.88Q475.62 78.03 476.16 77.34Q476.7 76.65 476.97 75.87L476.97 75.87Q477.23 75.08 477.32 73.95L480.76 73.95L480.76 78.77L481.74 78.77L481.74 73.95L484.3 73.95ZM532.21 77.44L532.21 69.92L536.32 69.92L536.32 68.9L527.06 68.9L527.06 69.92L531.14 69.92L531.14 77.44L526.33 77.44L526.33 78.4L537.03 78.4L537.03 77.44L532.21 77.44ZM524.46 69.21L521.17 78L522.21 78L525.5 69.21L524.46 69.21ZM546.41 69.33L546.41 70.2L540.92 70.2L540.92 69.33L546.41 69.33ZM506.6 69.44L506.6 71.53L503.45 71.53L503.45 69.44L506.6 69.44ZM480.76 73L477.36 73L477.36 69.64L480.76 69.64L480.76 73ZM486.55 72.42Q487.19 72.94 487.59 73.32L488.17 72.55L487.56 72.05Q486.35 71.08 486.02 70.83L485.49 71.56Q485.92 71.89 486.55 72.42ZM546.41 71.91L540.92 71.91L540.92 71.02L546.41 71.02L546.41 71.91ZM494.77 71.35L494.77 72.36L491.64 72.36L491.64 71.35L494.77 71.35ZM506.6 74.47L503.45 74.47L503.45 72.44L506.6 72.44L506.6 74.47ZM546.41 72.73L546.41 73.62L540.92 73.62L540.92 72.73L546.41 72.73ZM491.64 73.13L494.77 73.13L494.77 74.14L491.64 74.14L491.64 73.13ZM486.76 78.75L487.92 74.3L487.02 74.08Q486.96 74.47 486.5 76.21Q486.04 77.96 485.88 78.5L486.76 78.75ZM540.92 74.43L546.41 74.43L546.41 75.34L540.92 75.34L540.92 74.43ZM503.45 75.38L506.6 75.38L506.6 77.51L503.45 77.51L503.45 75.38ZM496.5 78.09Q495.67 76.23 495.23 75.39L494.48 75.7Q494.74 76.21 495.12 77.07Q495.51 77.92 495.7 78.44L496.5 78.09ZM491.07 77.21Q491.48 76.45 491.74 75.79L490.97 75.48Q490.49 76.76 489.54 78.14L490.26 78.57Q490.67 77.97 491.07 77.21ZM499.72 77.61Q501.2 77.27 501.69 77.2L501.59 76.23Q501.12 76.32 499.72 76.64Q498.32 76.96 497.44 77.18L497.62 78.12Q498.24 77.94 499.72 77.61ZM547.05 77.17Q546.03 76.7 545.23 76.37L544.84 77.19Q546.03 77.67 548.44 78.84L548.85 77.96Q548.58 77.85 547.05 77.17ZM540.25 77.32Q539.42 77.72 538.37 78.08L538.73 78.94Q541.02 78.05 542.38 77.19L541.88 76.44Q541.09 76.93 540.25 77.32Z" fill="#191919" fill-opacity="1.000000" fill-rule="evenodd"/>
		<path id="定时同步" d="M262.11 109.26L262.11 108.02L269.96 108.02L269.96 109.26L270.88 109.26L270.88 107.13L266.8 107.13Q266.52 106.34 266.31 105.84L265.3 105.96Q265.49 106.35 265.77 107.13L261.17 107.13L261.17 109.26L262.11 109.26ZM283.47 109.18L283.47 108.26L282 108.26L282 105.93L281.02 105.93L281.02 108.26L277.38 108.26L277.38 109.18L281.02 109.18L281.02 115.13Q281.02 115.5 280.86 115.62Q280.7 115.74 280.19 115.74Q279.63 115.74 278.64 115.65L278.84 116.6Q279.41 116.67 280.06 116.67Q280.38 116.67 280.55 116.65Q281.12 116.63 281.42 116.49Q281.55 116.44 281.65 116.35Q281.78 116.22 281.87 116.03Q282 115.71 282 115.1L282 109.18L283.47 109.18ZM302.55 110.05L302.55 108.34L306.53 108.34L306.53 107.45L302.55 107.45L302.55 105.99L301.55 105.99L301.55 110.05L299.51 110.05L299.51 106.86L298.51 106.86L298.51 110.05L296.62 110.05L296.62 111.02L301.78 111.02L301.78 114.04L302.77 114.04L302.77 111.02L307.36 111.02L307.36 110.05L302.55 110.05ZM294.52 116.14Q294.64 115.82 294.64 115.23L294.64 106.59L285.21 106.59L285.21 116.77L286.15 116.77L286.15 107.49L293.68 107.49L293.68 114.98Q293.68 115.48 293.55 115.68Q293.54 115.7 293.52 115.72Q293.39 115.88 293.07 115.88Q292.32 115.88 291.74 115.78L291.91 116.68Q292.56 116.75 293.2 116.75Q293.29 116.75 293.38 116.75Q293.87 116.74 294.14 116.6Q294.21 116.56 294.28 116.51Q294.44 116.38 294.52 116.14ZM272.97 115.85L276.65 115.85L276.65 106.86L272.97 106.86L272.97 115.85ZM275.76 107.84L275.76 110.69L273.89 110.69L273.89 107.84L275.76 107.84ZM292.94 108.79L286.91 108.79L286.91 109.66L292.94 109.66L292.94 108.79ZM269.19 115.65Q268.05 115.65 266.87 115.58L266.68 115.56L266.68 113.38L270.22 113.38L270.22 112.5L266.68 112.5L266.68 110.61L270.54 110.61L270.54 109.72L261.52 109.72L261.52 110.61L265.72 110.61L265.72 115.41Q264.87 115.2 264.27 114.72Q263.68 114.24 263.24 113.41Q263.38 112.77 263.49 111.69L262.53 111.6Q262.43 112.71 262.21 113.49Q262.02 114.17 261.68 114.77Q261.63 114.85 261.58 114.93Q261.17 115.59 260.45 116.31L261.24 116.94Q261.84 116.33 262.25 115.74Q262.41 115.5 262.55 115.25Q262.75 114.87 262.91 114.47Q263.39 115.22 264.07 115.67Q264.27 115.8 264.48 115.9Q265.43 116.38 266.8 116.48Q267.94 116.55 269.05 116.55Q270.18 116.55 271.3 116.48L271.5 115.58Q270.35 115.65 269.19 115.65ZM278.46 111.95Q278.99 112.9 279.3 113.5L280.08 113.03Q279.83 112.49 279.29 111.54Q278.75 110.58 278.43 110.1L277.64 110.53Q277.94 111 278.46 111.95ZM292.22 110.93L287.62 110.93L287.62 114.76L292.22 114.76L292.22 110.93ZM299.07 113.51Q299.94 112.74 300.54 112.11L299.82 111.35Q299.24 112.01 298.41 112.74Q297.59 113.46 296.8 114.02L297.36 114.89Q298.19 114.28 299.07 113.51ZM273.89 114.91L273.89 111.59L275.76 111.59L275.76 114.91L273.89 114.91ZM300.94 114.98Q299.33 115.53 296.88 115.95L297.23 116.92Q299.65 116.48 301.3 115.9Q302.94 115.32 304.17 114.48Q305.4 113.63 306.53 112.34L305.77 111.64Q304.79 112.85 303.67 113.64Q302.55 114.42 300.94 114.98ZM288.5 113.93L288.5 111.76L291.34 111.76L291.34 113.93L288.5 113.93Z" fill="#191919" fill-opacity="1.000000" fill-rule="evenodd"/>
		<path id="实时代理" d="M262.06 71.58L262.06 70.05L269.92 70.05L269.92 71.6L270.89 71.6L270.89 69.16L266.76 69.16L266.61 68.82Q266.24 67.91 266.13 67.74L265.14 68.02Q265.32 68.34 265.7 69.16L261.12 69.16L261.12 71.58L262.06 71.58ZM283.47 71.18L283.47 70.25L282 70.25L282 67.93L281.02 67.93L281.02 70.25L277.38 70.25L277.38 71.18L281.02 71.18L281.02 77.13Q281.02 77.5 280.86 77.62Q280.7 77.74 280.19 77.74Q279.63 77.74 278.64 77.65L278.84 78.6Q279.41 78.67 280.06 78.67Q280.38 78.67 280.55 78.65Q281.12 78.63 281.42 78.49Q281.55 78.44 281.65 78.35Q281.78 78.22 281.87 78.03Q282 77.71 282 77.1L282 71.18L283.47 71.18ZM294.42 75.29Q294.29 76.04 294.1 76.72Q293.96 77.27 293.81 77.46Q293.72 77.56 293.62 77.6Q293.54 77.63 293.45 77.63Q293.35 77.63 293.25 77.61Q293.13 77.58 293.03 77.51Q292.84 77.38 292.58 77.02Q292.19 76.46 291.85 75.32Q291.51 74.18 291.3 72.53L295.31 72.17L295.23 71.23L291.2 71.61Q291.12 70.83 291.1 70.33L291 67.94L290.02 67.94L290.14 70.29Q290.17 71.02 290.25 71.7L287.69 71.94L287.77 72.86L290.34 72.63Q290.76 76.13 291.77 77.61Q292.22 78.24 292.61 78.5Q292.89 78.68 293.18 78.74Q293.32 78.76 293.45 78.76Q293.68 78.76 293.87 78.69Q294.1 78.61 294.29 78.44Q294.65 78.12 294.87 77.36Q295.1 76.63 295.25 75.68L294.42 75.29ZM287.13 71.08Q287.79 69.76 288.28 68.29L287.34 67.99Q286.84 69.55 286.06 71.07Q285.28 72.6 284.44 73.62L284.89 74.63Q285.6 73.74 286.18 72.8L286.18 78.84L287.13 78.84L287.13 71.08ZM292.89 69.73Q293.46 70.24 293.79 70.58L294.39 69.87Q294.1 69.6 293.52 69.1Q292.94 68.61 292.48 68.25L291.93 68.9Q292.32 69.21 292.89 69.73ZM304.35 77.53L304.35 76.23L307.08 76.23L307.08 75.37L304.35 75.37L304.35 74.06L306.82 74.06L306.82 68.58L300.96 68.58L300.96 74.06L303.45 74.06L303.45 75.37L300.75 75.37L300.75 76.23L303.45 76.23L303.45 77.53L300.29 77.53L300.29 78.4L307.55 78.4L307.55 77.53L304.35 77.53ZM272.97 77.85L276.65 77.85L276.65 68.86L272.97 68.86L272.97 77.85ZM298.6 77.47Q299.84 77.19 300.33 77.11L300.28 76.17Q300.04 76.24 298.97 76.5L298.97 73.48L300.24 73.48L300.24 72.6L298.97 72.6L298.97 69.85L300.32 69.85L300.32 68.96L296.64 68.96L296.64 69.85L298.06 69.85L298.06 72.6L296.74 72.6L296.74 73.48L298.06 73.48L298.06 76.7Q297 76.95 296.49 77.03L296.63 77.94Q297.38 77.75 298.6 77.47ZM303.45 69.43L303.45 70.91L301.89 70.91L301.89 69.43L303.45 69.43ZM305.92 70.91L304.35 70.91L304.35 69.43L305.92 69.43L305.92 70.91ZM275.76 69.84L275.76 72.69L273.89 72.69L273.89 69.84L275.76 69.84ZM264.27 72.06Q265.02 72.48 265.49 72.8L265.92 71.97Q265.43 71.65 264.7 71.26Q263.98 70.87 263.38 70.58L262.96 71.36Q263.52 71.63 264.27 72.06ZM267.17 75.72L271.3 75.72L271.3 74.83L267.47 74.83Q267.64 74.1 267.67 73.04Q267.7 72.55 267.72 71.85Q267.75 71.15 267.75 70.66L266.75 70.66L266.69 72.91Q266.67 74.11 266.46 74.83L260.68 74.83L260.68 75.72L266.08 75.72Q265.55 76.52 264.35 77.03Q263.15 77.55 260.84 77.98L261.18 78.92Q263.17 78.52 264.4 78.05Q265.64 77.58 266.34 76.89Q267.18 77.24 268.45 77.8Q269.73 78.37 270.74 78.84L271.2 77.94Q270.01 77.46 266.94 76.16Q267.11 75.87 267.17 75.72ZM301.89 73.22L301.89 71.74L303.45 71.74L303.45 73.22L301.89 73.22ZM304.35 73.22L304.35 71.74L305.92 71.74L305.92 73.22L304.35 73.22ZM278.46 73.95Q278.99 74.9 279.3 75.5L280.08 75.03Q279.83 74.49 279.29 73.54Q278.75 72.58 278.43 72.1L277.64 72.53Q277.94 73 278.46 73.95ZM263.86 73.02Q263.05 72.58 262.43 72.28L262.02 73.03Q262.55 73.27 263.35 73.72Q264.15 74.18 264.7 74.53L265.15 73.77Q264.66 73.45 263.86 73.02ZM273.89 76.91L273.89 73.59L275.76 73.59L275.76 76.91L273.89 76.91Z" fill="#191919" fill-opacity="1.000000" fill-rule="evenodd"/>
		<path id="直线备份 12" d="M360.03 369L360.03 366.13L365 369L360.03 371.86L360.03 369L361.03 369L361.03 371L360.53 371L360.28 370.56L363.75 368.56L364 369L363.75 369.43L360.28 367.43L360.53 367L361.03 367L361.03 369L360.03 369ZM360.53 369L360.53 367L364 369L360.53 371L360.53 369" fill="#D8D8D8" fill-opacity="0" fill-rule="nonzero"/>
		<path id="直线备份 12" d="M360.03 369.5L360.03 371.86L365 369L360.03 366.13L360.03 368.5L207 368.5L207 369.5L360.03 369.5Z" fill="#999999" fill-opacity="1.000000" fill-rule="evenodd"/>
		<path id="代码" d="M284.42 353.29Q284.29 354.04 284.1 354.72Q283.96 355.27 283.81 355.46Q283.72 355.56 283.62 355.61Q283.54 355.64 283.45 355.64Q283.35 355.64 283.25 355.61Q283.13 355.58 283.03 355.51Q282.84 355.38 282.58 355.02Q282.19 354.46 281.85 353.32Q281.51 352.18 281.3 350.53L285.31 350.17L285.23 349.23L281.2 349.61Q281.12 348.83 281.1 348.33L281 345.94L280.02 345.94L280.14 348.29Q280.17 349.02 280.25 349.7L277.69 349.94L277.77 350.86L280.34 350.63Q280.76 354.14 281.77 355.61Q282.22 356.24 282.61 356.5Q282.89 356.68 283.18 356.74Q283.32 356.76 283.45 356.76Q283.68 356.76 283.87 356.69Q284.1 356.61 284.29 356.44Q284.65 356.12 284.87 355.36Q285.1 354.63 285.25 353.68L284.42 353.29ZM277.13 349.08Q277.79 347.76 278.28 346.29L277.34 345.99Q276.84 347.55 276.06 349.07Q275.28 350.6 274.44 351.62L274.89 352.64Q275.6 351.74 276.18 350.8L276.18 356.84L277.13 356.84L277.13 349.08ZM282.89 347.73Q283.46 348.24 283.79 348.58L284.39 347.87Q284.1 347.6 283.52 347.1Q282.94 346.61 282.48 346.25L281.93 346.9Q282.32 347.21 282.89 347.73ZM297.17 351.05L295.77 351.05L296.2 346.58L291.43 346.58L291.43 347.49L295.15 347.49L294.82 351.05L292.62 351.05L292.89 348.09L291.97 348.03L291.6 351.98L296.18 351.98Q296.12 353.53 295.92 354.84Q295.82 355.47 295.62 355.68Q295.41 355.9 294.9 355.9Q294.34 355.9 293.21 355.78L293.36 356.69Q294.38 356.79 295.25 356.79Q295.81 356.79 296.12 356.62Q296.18 356.59 296.23 356.55Q296.47 356.38 296.59 356.07Q296.75 355.68 296.84 354.96Q297.1 353 297.17 351.05ZM286.7 346.77L286.7 347.7L288.08 347.7Q287.83 348.89 287.36 350.1Q286.89 351.32 286.35 352.2L286.74 353.26Q287.24 352.46 287.57 351.79L287.57 356.2L290.5 356.2L290.5 350.21L288.26 350.21Q288.68 349.12 289.03 347.7L290.85 347.7L290.85 346.77L286.7 346.77ZM288.43 351.11L289.64 351.11L289.64 355.29L288.43 355.29L288.43 351.11ZM295.38 353.4L291.03 353.4L291.03 354.28L295.38 354.28L295.38 353.4Z" fill="#191919" fill-opacity="1.000000" fill-rule="evenodd"/>
		<path id="直线备份 12" d="M584.03 369L584.03 366.13L589 369L584.03 371.86L584.03 369L585.03 369L585.03 371L584.53 371L584.28 370.56L587.75 368.56L588 369L587.75 369.43L584.28 367.43L584.53 367L585.03 367L585.03 369L584.03 369ZM584.53 369L584.53 367L588 369L584.53 371L584.53 369" fill="#D8D8D8" fill-opacity="0" fill-rule="nonzero"/>
		<path id="直线备份 12" d="M584.03 369.5L584.03 371.86L589 369L584.03 366.13L584.03 368.5L431 368.5L431 369.5L584.03 369.5Z" fill="#999999" fill-opacity="1.000000" fill-rule="evenodd"/>
		<path id="软件包" d="M497.92 345.86Q497.31 348.38 496.17 350.26L496.92 350.76Q497.56 349.65 497.99 348.57L501.32 348.57L500.38 350.73L501.17 351.06L502.22 348.55L502.22 347.65L498.32 347.65Q498.58 346.91 498.79 346.01L497.92 345.86ZM514.52 353.09L514.52 352.18L511.34 352.18L511.34 349.37L514.08 349.37L514.08 348.42L511.34 348.42L511.34 345.87L510.39 345.87L510.39 348.42L508.7 348.42Q508.97 347.39 509.1 346.77L508.24 346.55Q507.99 347.65 507.6 348.83Q507.21 350 506.76 350.98L507.67 351.33Q508.03 350.51 508.41 349.37L510.39 349.37L510.39 352.18L506.75 352.18L506.75 353.09L510.39 353.09L510.39 356.91L511.34 356.91L511.34 353.09L514.52 353.09ZM494.88 354.52L496.64 354.24L496.65 353.32Q496.24 353.39 495.14 353.55L494.88 353.58L494.88 351.91L496.47 351.91L496.47 351L494.88 351L494.88 348.98L494 348.98L494 351L492.84 351Q493.29 349.98 493.8 348.32L496.58 348.32L496.58 347.39L494.08 347.39Q494.26 346.78 494.44 346.01L493.52 345.88Q493.36 346.66 493.15 347.39L491.63 347.39L491.63 348.32L492.88 348.32Q492.35 350 491.88 350.99L491.88 351.91L494 351.91L494 353.72Q492.63 353.91 491.43 354.04L491.52 354.98Q492.74 354.84 494 354.65L494 356.91L494.88 356.91L494.88 354.52ZM505.96 348.76Q506.46 347.58 506.86 346.18L505.92 345.9Q505.53 347.33 504.81 348.86Q504.1 350.38 503.37 351.4L503.81 352.47Q504.5 351.6 505.05 350.62L505.05 356.87L505.96 356.87L505.96 348.76ZM526.14 354.62Q526.19 354.22 526.22 353.87L525.24 353.6Q525.24 353.81 525.21 354.16Q525.18 354.51 525.15 354.75Q525.1 355.12 525.01 355.29Q524.98 355.34 524.95 355.38Q524.86 355.48 524.72 355.53Q524.52 355.6 524.08 355.64Q522.99 355.72 521.55 355.72Q520.12 355.72 519.02 355.64Q518.55 355.6 518.33 355.54Q518.18 355.49 518.08 355.38Q518.05 355.34 518.02 355.3Q517.92 355.12 517.92 354.75L517.92 353.16L522.27 353.16L522.27 349.48L517.41 349.48Q517.9 348.83 518.34 348.09L524.27 348.09Q524.28 348.34 524.28 348.88Q524.28 350.61 524.12 352.48Q524.07 352.94 523.99 353.15Q523.93 353.31 523.83 353.4Q523.78 353.43 523.73 353.46Q523.55 353.55 523.18 353.52Q522.81 353.51 521.97 353.43L522.09 354.36Q522.38 354.39 522.48 354.39Q523.15 354.44 523.35 354.44Q523.94 354.44 524.29 354.29Q524.44 354.23 524.56 354.13Q524.72 354 524.83 353.8Q525.02 353.44 525.08 352.79Q525.15 351.94 525.19 350.73Q525.24 349.52 525.24 348.33Q525.24 347.55 525.23 347.17L518.82 347.17Q519.08 346.68 519.26 346.23L518.22 345.9Q517.84 347 517.14 348.06Q516.45 349.12 515.57 349.96L516.32 350.73Q516.64 350.4 517 349.98L517 354.99Q517 355.6 517.18 355.93Q517.25 356.04 517.34 356.14Q517.5 356.3 517.73 356.38Q518.1 356.51 518.77 356.56Q519.94 356.64 521.41 356.64Q522.99 356.64 524.21 356.56Q524.92 356.51 525.27 356.41Q525.62 356.31 525.78 356.08Q525.79 356.07 525.79 356.07Q525.96 355.83 526.05 355.32Q526.1 355.02 526.14 354.62ZM500.09 353.28Q499.57 352.25 499.43 351.03Q499.46 350.72 499.46 350.56Q499.47 350.31 499.47 349.27L498.57 349.27L498.55 350.53Q498.55 351.81 498.11 352.9Q497.98 353.22 497.81 353.52Q497.07 354.86 495.46 356.13L496.07 356.92Q498.3 355.02 499.05 352.92Q499.15 353.25 499.28 353.56Q500.07 355.43 501.91 356.86L502.56 356.03Q501.16 355.05 500.39 353.81Q500.23 353.55 500.09 353.28ZM521.34 350.41L521.34 352.25L517.92 352.25L517.92 350.41L521.34 350.41Z" fill="#191919" fill-opacity="1.000000" fill-rule="evenodd"/>
	</g>
</svg>
